<mxfile host="Electron" agent="Mozilla/5.0 (Windows NT 10.0; Win64; x64) AppleWebKit/537.36 (KHTML, like Gecko) draw.io/28.2.5 Chrome/138.0.7204.251 Electron/37.6.1 Safari/537.36" version="28.2.5">
  <diagram name="Структурная схема" id="Структурная_схема">
    <mxGraphModel dx="989" dy="850" grid="1" gridSize="10" guides="1" tooltips="1" connect="1" arrows="1" fold="1" page="1" pageScale="1" pageWidth="827" pageHeight="1169" math="0" shadow="0">
      <root>
        <mxCell id="0" />
        <mxCell id="1" parent="0" />
        <UserObject label="" tags="Фон" id="2">
          <mxCell style="vsdxID=1669;rotation=90;fillColor=none;gradientColor=none;shape=stencil(vVHLDsIgEPwajiQI6RfU+h8bu22JCGRB2/69kG1iazx58DazM/vIjjBtmiCi0CplCjecbZ8nYc5Ca+snJJsLEqYTph0C4Ujh4XvmEaqzont41gkL96naodXKrGF6YSfQtUi0OXXDVlqPfJNP6usotUhYbJIUMmQb/GGrAxpRljVycDBuc1hKM2LclX8/7H9nFfB+82Cd45T2+mcspcSRmu4F);strokeColor=#000000;points=[];labelBackgroundColor=none;rounded=0;html=1;whiteSpace=wrap;" parent="1" vertex="1">
            <mxGeometry x="893.51" y="162.59" width="20.16" height="41.56" as="geometry" />
          </mxCell>
        </UserObject>
        <UserObject label="" tags="Фон" id="3">
          <mxCell style="vsdxID=1658;fillColor=none;gradientColor=none;strokeColor=none;strokeWidth=2;points=[];labelBackgroundColor=none;rounded=0;html=1;whiteSpace=wrap;" parent="1" vertex="1">
            <mxGeometry x="848.5600000000001" y="70.84" width="110.05" height="85.59" as="geometry" />
          </mxCell>
        </UserObject>
        <mxCell id="4" style="vsdxID=1659;fillColor=#33cccc;gradientColor=none;shape=stencil(nZBLDoAgDERP0z3SIyjew0SURgSD+Lu9kMZoXLhwN9O+tukAlrNpJg1SzDH4QW/URgNYgZTkjA4UkwJUgGXng+6DX1zLfmoymdXo17xh5zmRJ6Q42BWCfc2oJfdAr+Yv+AP9Cb7OJ3H/2JG1HNGz/84klThPVCc=);strokeColor=#000000;strokeWidth=2;flipH=1;flipV=1;points=[[0.41,0,0],[0.27,0,0],[0.33,1,0],[0,0.97,0],[1,0.37,0]];labelBackgroundColor=none;rounded=0;html=1;whiteSpace=wrap;" parent="3" vertex="1">
          <mxGeometry width="110.05" height="85.59" as="geometry" />
        </mxCell>
        <mxCell id="5" style="vsdxID=1660;fillColor=none;gradientColor=none;strokeColor=none;strokeWidth=2;points=[];labelBackgroundColor=none;rounded=0;html=1;whiteSpace=wrap;" parent="3" vertex="1">
          <mxGeometry x="12.22" y="12.22" width="85.59" height="61.14" as="geometry" />
        </mxCell>
        <mxCell id="6" style="vsdxID=1661;rotation=90;fillColor=#000000;gradientColor=none;shape=stencil(pZFdDsIgEIRPs68E2RQPUOs9mpTKRoSG4t/tBTfGWqOx8W12+WZCdgDr0baDASXHFMPenKlLFnADSpG3JlLKCrABrPsQzS6Go+94HtpCFnUIp5JwYR+iQCwuJa+8WUl5n7eMO/ITXGuh1//gCkWFnw2PtB/x6pX+8pNFse9HWWyYnSWLZwM9OccFTt/njeUVt43NDQ==);strokeColor=#000000;strokeWidth=2;flipH=1;points=[];labelBackgroundColor=none;rounded=0;html=1;whiteSpace=wrap;" parent="5" vertex="1">
          <mxGeometry x="52.61" y="28.150000000000002" width="17.46" height="48.5" as="geometry" />
        </mxCell>
        <mxCell id="7" style="vsdxID=1662;rotation=90;fillColor=#000000;gradientColor=none;shape=stencil(pZFdDsIgEIRPs68E2RQPUOs9mpTKRoSG4t/tBTfGWqOx8W12+WZCdgDr0baDASXHFMPenKlLFnADSpG3JlLKCrABrPsQzS6Go+94HtpCFnUIp5JwYR+iQCwuJa+8WUl5n7eMO/ITXGuh1//gCkWFnw2PtB/x6pX+8pNFse9HWWyYnSWLZwM9OccFTt/njeUVt43NDQ==);strokeColor=#000000;strokeWidth=2;flipH=1;points=[];labelBackgroundColor=none;rounded=0;html=1;whiteSpace=wrap;" parent="5" vertex="1">
          <mxGeometry x="52.61" y="-0.97" width="17.46" height="48.5" as="geometry" />
        </mxCell>
        <mxCell id="8" style="vsdxID=1663;rotation=270;fillColor=#000000;gradientColor=none;shape=stencil(pZFdDsIgEIRPs68E2RQPUOs9mpTKRoSG4t/tBTfGWqOx8W12+WZCdgDr0baDASXHFMPenKlLFnADSpG3JlLKCrABrPsQzS6Go+94HtpCFnUIp5JwYR+iQCwuJa+8WUl5n7eMO/ITXGuh1//gCkWFnw2PtB/x6pX+8pNFse9HWWyYnSWLZwM9OccFTt/njeUVt43NDQ==);strokeColor=#000000;strokeWidth=2;points=[];labelBackgroundColor=none;rounded=0;html=1;whiteSpace=wrap;" parent="5" vertex="1">
          <mxGeometry x="15.51" y="13.59" width="17.46" height="48.5" as="geometry" />
        </mxCell>
        <mxCell id="9" style="vsdxID=1664;rotation=270;fillColor=#000000;gradientColor=none;shape=stencil(pZFdDsIgEIRPs68E2RQPUOs9mpTKRoSG4t/tBTfGWqOx8W12+WZCdgDr0baDASXHFMPenKlLFnADSpG3JlLKCrABrPsQzS6Go+94HtpCFnUIp5JwYR+iQCwuJa+8WUl5n7eMO/ITXGuh1//gCkWFnw2PtB/x6pX+8pNFse9HWWyYnSWLZwM9OccFTt/njeUVt43NDQ==);strokeColor=#000000;strokeWidth=2;points=[];labelBackgroundColor=none;rounded=0;html=1;whiteSpace=wrap;" parent="5" vertex="1">
          <mxGeometry x="15.51" y="-15.52" width="17.46" height="48.5" as="geometry" />
        </mxCell>
        <UserObject label="&lt;div style=&quot;font-size: 1px&quot;&gt;&lt;font style=&quot;font-size:16.93px;font-family:Calibri;color:#000000;direction:ltr;letter-spacing:0px;line-height:120%;opacity:1&quot;&gt;LACP Active&lt;br/&gt;&lt;/font&gt;&lt;/div&gt;" tags="Фон" id="10">
          <mxCell style="verticalAlign=middle;align=center;overflow=width;vsdxID=1671;fillColor=none;gradientColor=none;shape=stencil(nZBLDoAgDERP0z3SIyjew0SURgSD+Lu9kMZoXLhwN9O+tukAlrNpJg1SzDH4QW/URgNYgZTkjA4UkwJUgGXng+6DX1zLfmoymdXo17xh5zmRJ6Q42BWCfc2oJfdAr+Yv+AP9Cb7OJ3H/2JG1HNGz/84klThPVCc=);strokeColor=none;points=[];labelBackgroundColor=none;rounded=0;html=1;whiteSpace=wrap;" parent="1" vertex="1">
            <mxGeometry x="882.8100000000001" y="173.29" width="187.84" height="20.16" as="geometry" />
          </mxCell>
        </UserObject>
        <UserObject label="&lt;div style=&quot;font-size: 1px&quot;&gt;&lt;p style=&quot;text-align:left;margin-left:0;margin-right:0;margin-top:0px;margin-bottom:0px;text-indent:0;vertical-align:top;direction:ltr;&quot;&gt;&lt;font style=&quot;font-size:14.11px;font-family:Arial;color:#000000;direction:ltr;letter-spacing:0px;line-height:120%;opacity:1&quot;&gt;Кабинет №436&lt;br/&gt;&lt;/font&gt;&lt;/p&gt;&lt;/div&gt;" tags="Фон" id="11">
          <mxCell style="verticalAlign=top;align=left;overflow=width;vsdxID=1673;fillColor=none;gradientColor=none;shape=stencil(nZBLDoAgDERP0z3SIyjew0SURgSD+Lu9kMZoXLhwN9O+tukAlrNpJg1SzDH4QW/URgNYgZTkjA4UkwJUgGXng+6DX1zLfmoymdXo17xh5zmRJ6Q42BWCfc2oJfdAr+Yv+AP9Cb7OJ3H/2JG1HNGz/84klThPVCc=);dashed=1;dashPattern=4.00 2.00 1.00 2.00;strokeColor=#000000;strokeWidth=2;points=[];labelBackgroundColor=none;rounded=0;html=1;whiteSpace=wrap;" parent="1" vertex="1">
            <mxGeometry x="680.33" y="213.94" width="436.08" height="281.6" as="geometry" />
          </mxCell>
        </UserObject>
        <UserObject label="&lt;div style=&quot;font-size: 1px&quot;&gt;&lt;p style=&quot;text-align:left;margin-left:0;margin-right:0;margin-top:0px;margin-bottom:0px;text-indent:0;vertical-align:top;direction:ltr;&quot;&gt;&lt;font style=&quot;font-size:14.11px;font-family:Arial;color:#000000;direction:ltr;letter-spacing:0px;line-height:120%;opacity:1&quot;&gt;Серверная 2&lt;br/&gt;&lt;/font&gt;&lt;/p&gt;&lt;/div&gt;" tags="Фон" id="12">
          <mxCell style="verticalAlign=top;align=left;overflow=width;vsdxID=1674;fillColor=none;gradientColor=none;shape=stencil(nZBLDoAgDERP0z3SIyjew0SURgSD+Lu9kMZoXLhwN9O+tukAlrNpJg1SzDH4QW/URgNYgZTkjA4UkwJUgGXng+6DX1zLfmoymdXo17xh5zmRJ6Q42BWCfc2oJfdAr+Yv+AP9Cb7OJ3H/2JG1HNGz/84klThPVCc=);dashed=1;dashPattern=4.00 2.00 1.00 2.00;strokeColor=#000000;strokeWidth=2;points=[];labelBackgroundColor=none;rounded=0;html=1;whiteSpace=wrap;" parent="1" vertex="1">
            <mxGeometry x="809.6700000000001" y="25.400000000000002" width="187.84" height="176.49" as="geometry" />
          </mxCell>
        </UserObject>
        <UserObject label="" tags="Фон" id="13">
          <mxCell style="vsdxID=1644;fillColor=none;gradientColor=none;strokeColor=none;strokeWidth=2;points=[];labelBackgroundColor=none;rounded=0;html=1;whiteSpace=wrap;" parent="1" vertex="1">
            <mxGeometry x="848.5600000000001" y="239.66" width="110.05" height="85.59" as="geometry" />
          </mxCell>
        </UserObject>
        <mxCell id="14" style="vsdxID=1645;fillColor=#33cccc;gradientColor=none;shape=stencil(nZBLDoAgDERP0z3SIyjew0SURgSD+Lu9kMZoXLhwN9O+tukAlrNpJg1SzDH4QW/URgNYgZTkjA4UkwJUgGXng+6DX1zLfmoymdXo17xh5zmRJ6Q42BWCfc2oJfdAr+Yv+AP9Cb7OJ3H/2JG1HNGz/84klThPVCc=);strokeColor=#000000;strokeWidth=2;flipH=1;flipV=1;points=[[0.41,0,0],[0.27,0,0],[0,0.97,0],[1,0.37,0],[0.5,0,0]];labelBackgroundColor=none;rounded=0;html=1;whiteSpace=wrap;" parent="13" vertex="1">
          <mxGeometry width="110.05" height="85.59" as="geometry" />
        </mxCell>
        <mxCell id="15" style="vsdxID=1646;fillColor=none;gradientColor=none;strokeColor=none;strokeWidth=2;points=[];labelBackgroundColor=none;rounded=0;html=1;whiteSpace=wrap;" parent="13" vertex="1">
          <mxGeometry x="12.22" y="12.22" width="85.59" height="61.14" as="geometry" />
        </mxCell>
        <mxCell id="16" style="vsdxID=1647;rotation=90;fillColor=#000000;gradientColor=none;shape=stencil(pZFdDsIgEIRPs68E2RQPUOs9mpTKRoSG4t/tBTfGWqOx8W12+WZCdgDr0baDASXHFMPenKlLFnADSpG3JlLKCrABrPsQzS6Go+94HtpCFnUIp5JwYR+iQCwuJa+8WUl5n7eMO/ITXGuh1//gCkWFnw2PtB/x6pX+8pNFse9HWWyYnSWLZwM9OccFTt/njeUVt43NDQ==);strokeColor=#000000;strokeWidth=2;flipH=1;points=[];labelBackgroundColor=none;rounded=0;html=1;whiteSpace=wrap;" parent="15" vertex="1">
          <mxGeometry x="52.61" y="28.150000000000002" width="17.46" height="48.5" as="geometry" />
        </mxCell>
        <mxCell id="17" style="vsdxID=1648;rotation=90;fillColor=#000000;gradientColor=none;shape=stencil(pZFdDsIgEIRPs68E2RQPUOs9mpTKRoSG4t/tBTfGWqOx8W12+WZCdgDr0baDASXHFMPenKlLFnADSpG3JlLKCrABrPsQzS6Go+94HtpCFnUIp5JwYR+iQCwuJa+8WUl5n7eMO/ITXGuh1//gCkWFnw2PtB/x6pX+8pNFse9HWWyYnSWLZwM9OccFTt/njeUVt43NDQ==);strokeColor=#000000;strokeWidth=2;flipH=1;points=[];labelBackgroundColor=none;rounded=0;html=1;whiteSpace=wrap;" parent="15" vertex="1">
          <mxGeometry x="52.61" y="-0.97" width="17.46" height="48.5" as="geometry" />
        </mxCell>
        <mxCell id="18" style="vsdxID=1649;rotation=270;fillColor=#000000;gradientColor=none;shape=stencil(pZFdDsIgEIRPs68E2RQPUOs9mpTKRoSG4t/tBTfGWqOx8W12+WZCdgDr0baDASXHFMPenKlLFnADSpG3JlLKCrABrPsQzS6Go+94HtpCFnUIp5JwYR+iQCwuJa+8WUl5n7eMO/ITXGuh1//gCkWFnw2PtB/x6pX+8pNFse9HWWyYnSWLZwM9OccFTt/njeUVt43NDQ==);strokeColor=#000000;strokeWidth=2;points=[];labelBackgroundColor=none;rounded=0;html=1;whiteSpace=wrap;" parent="15" vertex="1">
          <mxGeometry x="15.51" y="13.59" width="17.46" height="48.5" as="geometry" />
        </mxCell>
        <mxCell id="19" style="vsdxID=1650;rotation=270;fillColor=#000000;gradientColor=none;shape=stencil(pZFdDsIgEIRPs68E2RQPUOs9mpTKRoSG4t/tBTfGWqOx8W12+WZCdgDr0baDASXHFMPenKlLFnADSpG3JlLKCrABrPsQzS6Go+94HtpCFnUIp5JwYR+iQCwuJa+8WUl5n7eMO/ITXGuh1//gCkWFnw2PtB/x6pX+8pNFse9HWWyYnSWLZwM9OccFTt/njeUVt43NDQ==);strokeColor=#000000;strokeWidth=2;points=[];labelBackgroundColor=none;rounded=0;html=1;whiteSpace=wrap;" parent="15" vertex="1">
          <mxGeometry x="15.51" y="-15.52" width="17.46" height="48.5" as="geometry" />
        </mxCell>
        <UserObject label="&lt;div style=&quot;font-size: 1px&quot;&gt;&lt;font style=&quot;font-size:16.93px;font-family:Calibri;color:#000000;direction:ltr;letter-spacing:0px;line-height:120%;opacity:1&quot;&gt;Switch1_ACS&lt;br/&gt;L2+&lt;br/&gt;&lt;/font&gt;&lt;/div&gt;" tags="Фон" id="20">
          <mxCell style="verticalAlign=middle;align=center;overflow=width;vsdxID=1750;fillColor=none;gradientColor=none;shape=stencil(nZBLDoAgDERP0z3SIyjew0SURgSD+Lu9kMZoXLhwN9O+tukAlrNpJg1SzDH4QW/URgNYgZTkjA4UkwJUgGXng+6DX1zLfmoymdXo17xh5zmRJ6Q42BWCfc2oJfdAr+Yv+AP9Cb7OJ3H/2JG1HNGz/84klThPVCc=);strokeColor=none;points=[];labelBackgroundColor=none;rounded=0;html=1;whiteSpace=wrap;" parent="1" vertex="1">
            <mxGeometry x="909.3000000000001" y="274.58" width="187.84" height="15.74" as="geometry" />
          </mxCell>
        </UserObject>
        <UserObject label="&lt;div style=&quot;font-size: 1px&quot;&gt;&lt;font style=&quot;font-size:16.93px;font-family:Calibri;color:#000000;direction:ltr;letter-spacing:0px;line-height:120%;opacity:1&quot;&gt;Switch&lt;/font&gt;&lt;font style=&quot;font-size:16.93px;font-family:Themed;color:#000000;direction:ltr;letter-spacing:0px;line-height:120%;opacity:1&quot;&gt;3&lt;/font&gt;&lt;font style=&quot;font-size:16.93px;font-family:Themed;color:#000000;direction:ltr;letter-spacing:0px;line-height:120%;opacity:1&quot;&gt;_DSTR&lt;br/&gt;L2+&lt;br/&gt;&lt;/font&gt;&lt;/div&gt;" tags="Фон" id="21">
          <mxCell style="verticalAlign=middle;align=center;overflow=width;vsdxID=1754;fillColor=none;gradientColor=none;shape=stencil(nZBLDoAgDERP0z3SIyjew0SURgSD+Lu9kMZoXLhwN9O+tukAlrNpJg1SzDH4QW/URgNYgZTkjA4UkwJUgGXng+6DX1zLfmoymdXo17xh5zmRJ6Q42BWCfc2oJfdAr+Yv+AP9Cb7OJ3H/2JG1HNGz/84klThPVCc=);strokeColor=none;points=[];labelBackgroundColor=none;rounded=0;html=1;whiteSpace=wrap;" parent="1" vertex="1">
            <mxGeometry x="917.48" y="105.77" width="187.84" height="15.74" as="geometry" />
          </mxCell>
        </UserObject>
        <UserObject label="&lt;div style=&quot;font-size: 1px&quot;&gt;&lt;p style=&quot;text-align:left;margin-left:0;margin-right:0;margin-top:0px;margin-bottom:0px;text-indent:0;vertical-align:top;direction:ltr;&quot;&gt;&lt;font style=&quot;font-size:16.93px;font-family:Calibri;color:#000000;direction:ltr;letter-spacing:0px;line-height:120%;opacity:1&quot;&gt;Задание&lt;/font&gt;&lt;font style=&quot;font-size:16.93px;font-family:Themed;color:#000000;direction:ltr;letter-spacing:0px;line-height:120%;opacity:1&quot;&gt;:&lt;/font&gt;&lt;font style=&quot;font-size:16.93px;font-family:Themed;color:#000000;direction:ltr;letter-spacing:0px;line-height:120%;opacity:1&quot;&gt;&lt;br/&gt;1) Собрать схему в&lt;/font&gt;&lt;font style=&quot;font-size:16.93px;font-family:Themed;color:#000000;direction:ltr;letter-spacing:0px;line-height:120%;opacity:1&quot;&gt; &lt;/font&gt;&lt;font style=&quot;font-size:16.93px;font-family:Themed;color:#000000;direction:ltr;letter-spacing:0px;line-height:120%;opacity:1&quot;&gt;Стендовой среде &lt;/font&gt;&lt;font style=&quot;font-size:16.93px;font-family:Themed;color:#000000;direction:ltr;letter-spacing:0px;line-height:120%;opacity:1&quot;&gt;PNETLab (&lt;/font&gt;&lt;font style=&quot;font-size:16.93px;font-family:Themed;color:#000000;direction:ltr;letter-spacing:0px;line-height:120%;opacity:1&quot;&gt;Инструкция&lt;/font&gt;&lt;font style=&quot;font-size:16.93px;font-family:Themed;color:#000000;direction:ltr;letter-spacing:0px;line-height:120%;opacity:1&quot;&gt;);&lt;/font&gt;&lt;font style=&quot;font-size:16.93px;font-family:Themed;color:#000000;direction:ltr;letter-spacing:0px;line-height:120%;opacity:1&quot;&gt;&lt;br/&gt;&lt;/font&gt;&lt;font style=&quot;font-size:16.93px;font-family:Themed;color:#000000;direction:ltr;letter-spacing:0px;line-height:120%;opacity:1&quot;&gt;2) &lt;/font&gt;&lt;font style=&quot;font-size:16.93px;font-family:Themed;color:#000000;direction:ltr;letter-spacing:0px;line-height:120%;opacity:1&quot;&gt;В качестве образа для коммутаторов использовать - i86bi_LinuxL2-AdvEnterpriseK9-M_152_May_2018.bin&lt;/font&gt;&lt;font style=&quot;font-size:16.93px;font-family:Themed;color:#000000;direction:ltr;letter-spacing:0px;line-height:120%;opacity:1&quot;&gt;;&lt;/font&gt;&lt;font style=&quot;font-size:16.93px;font-family:Themed;color:#000000;direction:ltr;letter-spacing:0px;line-height:120%;opacity:1&quot;&gt;&lt;br/&gt;3) В качестве образа компьютера использовать &lt;/font&gt;&lt;font style=&quot;font-size:16.93px;font-family:Themed;color:#000000;direction:ltr;letter-spacing:0px;line-height:120%;opacity:1&quot;&gt;VPC;&lt;br/&gt;&lt;/font&gt;&lt;font style=&quot;font-size:16.93px;font-family:Themed;color:#000000;direction:ltr;letter-spacing:0px;line-height:120%;opacity:1&quot;&gt;4) Присвоить &lt;/font&gt;&lt;font style=&quot;font-size:16.93px;font-family:Themed;color:#000000;direction:ltr;letter-spacing:0px;line-height:120%;opacity:1&quot;&gt;VLAN&lt;/font&gt;&lt;font style=&quot;font-size:16.93px;font-family:Themed;color:#000000;direction:ltr;letter-spacing:0px;line-height:120%;opacity:1&quot;&gt; на каждом порту коммутаторов доступа, который смотрит на ПК &lt;/font&gt;&lt;font style=&quot;font-size:16.93px;font-family:Themed;color:#000000;direction:ltr;letter-spacing:0px;line-height:120%;opacity:1&quot;&gt; &lt;/font&gt;&lt;font style=&quot;font-size:16.93px;font-family:Themed;color:#000000;direction:ltr;letter-spacing:0px;line-height:120%;opacity:1&quot;&gt;в соответствии с таблицей&lt;/font&gt;&lt;font style=&quot;font-size:16.93px;font-family:Themed;color:#000000;direction:ltr;letter-spacing:0px;line-height:120%;opacity:1&quot;&gt;;&lt;/font&gt;&lt;font style=&quot;font-size:16.93px;font-family:Themed;color:#000000;direction:ltr;letter-spacing:0px;line-height:120%;opacity:1&quot;&gt;&lt;br/&gt;5) Присвоить каждому &lt;/font&gt;&lt;font style=&quot;font-size:16.93px;font-family:Themed;color:#000000;direction:ltr;letter-spacing:0px;line-height:120%;opacity:1&quot;&gt;PC ip &lt;/font&gt;&lt;font style=&quot;font-size:16.93px;font-family:Themed;color:#000000;direction:ltr;letter-spacing:0px;line-height:120%;opacity:1&quot;&gt;адрес в соответствии с таблицей&lt;/font&gt;&lt;font style=&quot;font-size:16.93px;font-family:Themed;color:#000000;direction:ltr;letter-spacing:0px;line-height:120%;opacity:1&quot;&gt;;&lt;br/&gt;6) &lt;/font&gt;&lt;font style=&quot;font-size:16.93px;font-family:Themed;color:#000000;direction:ltr;letter-spacing:0px;line-height:120%;opacity:1&quot;&gt;Разрешить прохождение&lt;/font&gt;&lt;font style=&quot;font-size:16.93px;font-family:Themed;color:#000000;direction:ltr;letter-spacing:0px;line-height:120%;opacity:1&quot;&gt; &lt;/font&gt;&lt;font style=&quot;font-size:16.93px;font-family:Themed;color:#000000;direction:ltr;letter-spacing:0px;line-height:120%;opacity:1&quot;&gt;трафика между коммутаторами только по используемым &lt;/font&gt;&lt;font style=&quot;font-size:16.93px;font-family:Themed;color:#000000;direction:ltr;letter-spacing:0px;line-height:120%;opacity:1&quot;&gt;VLAN’&lt;/font&gt;&lt;font style=&quot;font-size:16.93px;font-family:Themed;color:#000000;direction:ltr;letter-spacing:0px;line-height:120%;opacity:1&quot;&gt;ам&lt;/font&gt;&lt;font style=&quot;font-size:16.93px;font-family:Themed;color:#000000;direction:ltr;letter-spacing:0px;line-height:120%;opacity:1&quot;&gt;;&lt;br/&gt;7) &lt;/font&gt;&lt;font style=&quot;font-size:16.93px;font-family:Themed;color:#000000;direction:ltr;letter-spacing:0px;line-height:120%;opacity:1&quot;&gt;Отключить автосогласование &lt;/font&gt;&lt;font style=&quot;font-size:16.93px;font-family:Themed;color:#000000;direction:ltr;letter-spacing:0px;line-height:120%;opacity:1&quot;&gt;DTP &lt;/font&gt;&lt;font style=&quot;font-size:16.93px;font-family:Themed;color:#000000;direction:ltr;letter-spacing:0px;line-height:120%;opacity:1&quot;&gt;на всех используемых портах&lt;/font&gt;&lt;font style=&quot;font-size:16.93px;font-family:Themed;color:#000000;direction:ltr;letter-spacing:0px;line-height:120%;opacity:1&quot;&gt;;&lt;br/&gt;8) &lt;/font&gt;&lt;font style=&quot;font-size:16.93px;font-family:Themed;color:#000000;direction:ltr;letter-spacing:0px;line-height:120%;opacity:1&quot;&gt;Отключить все неиспользуемые порты на коммутаторах&lt;/font&gt;&lt;font style=&quot;font-size:16.93px;font-family:Themed;color:#000000;direction:ltr;letter-spacing:0px;line-height:120%;opacity:1&quot;&gt;;&lt;br/&gt;9) &lt;/font&gt;&lt;font style=&quot;font-size:16.93px;font-family:Themed;color:#000000;direction:ltr;letter-spacing:0px;line-height:120%;opacity:1&quot;&gt;Между &lt;/font&gt;&lt;font style=&quot;font-size:16.93px;font-family:Themed;color:#000000;direction:ltr;letter-spacing:0px;line-height:120%;opacity:1&quot;&gt;Switch1_ACS &lt;/font&gt;&lt;font style=&quot;font-size:16.93px;font-family:Themed;color:#000000;direction:ltr;letter-spacing:0px;line-height:120%;opacity:1&quot;&gt;и &lt;/font&gt;&lt;font style=&quot;font-size:16.93px;font-family:Themed;color:#000000;direction:ltr;letter-spacing:0px;line-height:120%;opacity:1&quot;&gt;Switch3_DSTR &lt;/font&gt;&lt;font style=&quot;font-size:16.93px;font-family:Themed;color:#000000;direction:ltr;letter-spacing:0px;line-height:120%;opacity:1&quot;&gt;настроить &lt;/font&gt;&lt;font style=&quot;font-size:16.93px;font-family:Themed;color:#000000;direction:ltr;letter-spacing:0px;line-height:120%;opacity:1&quot;&gt;LACP &lt;/font&gt;&lt;font style=&quot;font-size:16.93px;font-family:Themed;color:#000000;direction:ltr;letter-spacing:0px;line-height:120%;opacity:1&quot;&gt;в режиме &lt;/font&gt;&lt;font style=&quot;font-size:16.93px;font-family:Themed;color:#000000;direction:ltr;letter-spacing:0px;line-height:120%;opacity:1&quot;&gt;Active;&lt;/font&gt;&lt;font style=&quot;font-size:16.93px;font-family:Themed;color:#000000;direction:ltr;letter-spacing:0px;line-height:120%;opacity:1&quot;&gt;&lt;br/&gt;&lt;/font&gt;&lt;font style=&quot;font-size:16.93px;font-family:Themed;color:#000000;direction:ltr;letter-spacing:0px;line-height:120%;opacity:1&quot;&gt;10&lt;/font&gt;&lt;font style=&quot;font-size:16.93px;font-family:Themed;color:#000000;direction:ltr;letter-spacing:0px;line-height:120%;opacity:1&quot;&gt;) Между &lt;/font&gt;&lt;font style=&quot;font-size:16.93px;font-family:Themed;color:#000000;direction:ltr;letter-spacing:0px;line-height:120%;opacity:1&quot;&gt;Switch3_DSTR &lt;/font&gt;&lt;font style=&quot;font-size:16.93px;font-family:Themed;color:#000000;direction:ltr;letter-spacing:0px;line-height:120%;opacity:1&quot;&gt;и &lt;/font&gt;&lt;font style=&quot;font-size:16.93px;font-family:Themed;color:#000000;direction:ltr;letter-spacing:0px;line-height:120%;opacity:1&quot;&gt;Switch 2_ACS&lt;/font&gt;&lt;font style=&quot;font-size:16.93px;font-family:Themed;color:#000000;direction:ltr;letter-spacing:0px;line-height:120%;opacity:1&quot;&gt; настроить статическую агрегацию канала&lt;/font&gt;&lt;font style=&quot;font-size:16.93px;font-family:Themed;color:#000000;direction:ltr;letter-spacing:0px;line-height:120%;opacity:1&quot;&gt;;&lt;br/&gt;&lt;/font&gt;&lt;font style=&quot;font-size:16.93px;font-family:Themed;color:#000000;direction:ltr;letter-spacing:0px;line-height:120%;opacity:1&quot;&gt;1&lt;/font&gt;&lt;font style=&quot;font-size:16.93px;font-family:Themed;color:#000000;direction:ltr;letter-spacing:0px;line-height:120%;opacity:1&quot;&gt;1) &lt;/font&gt;&lt;font style=&quot;font-size:16.93px;font-family:Themed;color:#000000;direction:ltr;letter-spacing:0px;line-height:120%;opacity:1&quot;&gt;Изменить &lt;/font&gt;&lt;font style=&quot;font-size:16.93px;font-family:Themed;color:#000000;direction:ltr;letter-spacing:0px;line-height:120%;opacity:1&quot;&gt;Native VLAN &lt;/font&gt;&lt;font style=&quot;font-size:16.93px;font-family:Themed;color:#000000;direction:ltr;letter-spacing:0px;line-height:120%;opacity:1&quot;&gt;на всех коммутаторах на &lt;/font&gt;&lt;font style=&quot;font-size:16.93px;font-family:Themed;color:#000000;direction:ltr;letter-spacing:0px;line-height:120%;opacity:1&quot;&gt;VLAN 999;&lt;br/&gt;12)&lt;/font&gt;&lt;font style=&quot;font-size:16.93px;font-family:Themed;color:#000000;direction:ltr;letter-spacing:0px;line-height:120%;opacity:1&quot;&gt; Настроить взаимодействие между сегментом руководителей и стажёров на устройстве &lt;/font&gt;&lt;font style=&quot;font-size:16.93px;font-family:Themed;color:#000000;direction:ltr;letter-spacing:0px;line-height:120%;opacity:1&quot;&gt;Switch3_DSTR.&lt;/font&gt;&lt;font style=&quot;font-size:16.93px;font-family:Themed;color:#923931;direction:ltr;letter-spacing:0px;line-height:120%;opacity:1&quot;&gt;&lt;br/&gt;Внимание! Лишних действий делать не нужно! Каждую лишнюю команду, введенную вами, придётся объяснять.&lt;/font&gt;&lt;font style=&quot;font-size:16.93px;font-family:Themed;color:#000000;direction:ltr;letter-spacing:0px;line-height:120%;opacity:1&quot;&gt;&lt;br/&gt;&lt;/font&gt;&lt;/p&gt;&lt;/div&gt;" tags="Фон" id="22">
          <mxCell style="verticalAlign=top;align=left;overflow=width;vsdxID=1766;fillColor=none;gradientColor=none;shape=stencil(nZBLDoAgDERP0z3SIyjew0SURgSD+Lu9kMZoXLhwN9O+tukAlrNpJg1SzDH4QW/URgNYgZTkjA4UkwJUgGXng+6DX1zLfmoymdXo17xh5zmRJ6Q42BWCfc2oJfdAr+Yv+AP9Cb7OJ3H/2JG1HNGz/84klThPVCc=);strokeColor=none;points=[];labelBackgroundColor=none;rounded=0;html=1;whiteSpace=wrap;" parent="1" vertex="1">
            <mxGeometry x="72.49" y="57.69" width="570.87" height="460.61" as="geometry" />
          </mxCell>
        </UserObject>
        <UserObject label="&lt;div style=&quot;font-size: 1px&quot;&gt;&lt;font style=&quot;font-size:16.93px;font-family:Calibri;color:#000000;direction:ltr;letter-spacing:0px;line-height:120%;opacity:1&quot;&gt;Таблица Сегментов сети&lt;/font&gt;&lt;font style=&quot;font-size:16.93px;font-family:Themed;color:#000000;direction:ltr;letter-spacing:0px;line-height:120%;opacity:1&quot;&gt;:&lt;br/&gt;&lt;/font&gt;&lt;/div&gt;" tags="Фон" id="23">
          <mxCell style="verticalAlign=middle;align=center;overflow=width;vsdxID=1767;fillColor=none;gradientColor=none;shape=stencil(nZBLDoAgDERP0z3SIyjew0SURgSD+Lu9kMZoXLhwN9O+tukAlrNpJg1SzDH4QW/URgNYgZTkjA4UkwJUgGXng+6DX1zLfmoymdXo17xh5zmRJ6Q42BWCfc2oJfdAr+Yv+AP9Cb7OJ3H/2JG1HNGz/84klThPVCc=);strokeColor=none;points=[];labelBackgroundColor=none;rounded=0;html=1;whiteSpace=wrap;" parent="1" vertex="1">
            <mxGeometry x="68.67" y="496.66" width="203.31" height="17.04" as="geometry" />
          </mxCell>
        </UserObject>
        <UserObject label="" tags="Фон" id="72">
          <mxCell style="vsdxID=1768;edgeStyle=none;startArrow=none;endArrow=none;startSize=5;endSize=5;spacingTop=0;spacingBottom=0;spacingLeft=0;spacingRight=0;verticalAlign=middle;html=1;labelBackgroundColor=#ffffff;rounded=0;" parent="1" edge="1">
            <mxGeometry relative="1" as="geometry">
              <Array as="points" />
              <mxPoint x="890.97" y="239.66" as="sourcePoint" />
              <mxPoint x="890.97" y="156.44" as="targetPoint" />
            </mxGeometry>
          </mxCell>
        </UserObject>
        <UserObject label="" tags="Фон" id="73">
          <mxCell style="vsdxID=1769;edgeStyle=none;startArrow=none;endArrow=none;startSize=5;endSize=5;spacingTop=0;spacingBottom=0;spacingLeft=0;spacingRight=0;verticalAlign=middle;html=1;labelBackgroundColor=#ffffff;rounded=0;" parent="1" edge="1">
            <mxGeometry relative="1" as="geometry">
              <Array as="points" />
              <mxPoint x="915" y="239.66" as="sourcePoint" />
              <mxPoint x="915" y="156.44" as="targetPoint" />
            </mxGeometry>
          </mxCell>
        </UserObject>
        <UserObject label="" tags="Фон" id="25">
          <mxCell style="vsdxID=1770;fillColor=none;gradientColor=none;points=[];labelBackgroundColor=none;rounded=0;strokeColor=none;html=1;whiteSpace=wrap;" parent="1" vertex="1">
            <mxGeometry x="729.17" y="368.06" width="187.84" height="82.19" as="geometry" />
          </mxCell>
        </UserObject>
        <mxCell id="26" style="vsdxID=1678;fillColor=none;gradientColor=none;points=[];labelBackgroundColor=none;rounded=0;strokeColor=none;html=1;whiteSpace=wrap;" parent="25" vertex="1">
          <mxGeometry x="66.52" y="15.74" width="60.120000000000005" height="66.45" as="geometry" />
        </mxCell>
        <mxCell id="27" style="vsdxID=1679;fillColor=none;gradientColor=none;points=[[0.5,0.5,0]];labelBackgroundColor=none;rounded=0;strokeColor=none;html=1;whiteSpace=wrap;" parent="26" vertex="1">
          <mxGeometry width="60.120000000000005" height="66.45" as="geometry" />
        </mxCell>
        <mxCell id="28" style="vsdxID=1680;fillColor=#33cccc;gradientColor=none;shape=stencil(pZPbDoMgDIafhlvCQQSvnXsPE3GSOTHITm8/GVkmY25hu2vL9zd/SQtoOXX1KAFBkzV6L8+qsR2gG0CIGjpplJ0jQCtAy1YbuTP6ODQ+H2tHuuigT67DxesKBnHhVARdfQXds62HezUsYAYF+ZnNOWRsnY+NJAsCN+GYGKEAfeRvOwsWsFxAvg7jFDjBxBfH4XiMQ5GnfF5GIM7+E3yeNHaUykeG5uC5xa3qe38Ey/fXrZ9L/mJodQM=);points=[];labelBackgroundColor=none;rounded=0;html=1;whiteSpace=wrap;" parent="27" vertex="1">
          <mxGeometry y="3.88" width="60.120000000000005" height="58.67" as="geometry" />
        </mxCell>
        <mxCell id="29" style="vsdxID=1681;fillColor=#33cccc;gradientColor=none;shape=stencil(UzV2Ls5ILEhVNTIoLinKz04tz0wpyVA1dlE1MsrMy0gtyiwBslSNXVWNndPyi1LTi/JL81Ig/IJEkEoQKze/DGRCBUSfoYEBSI+RQSWED+G5QZTmZOYhKSVTIcwGrErRrSdJMR2UAhmIkEvLzMmBBDyyPHpIA4UgsWTsCgA=);points=[];labelBackgroundColor=none;rounded=0;html=1;whiteSpace=wrap;" parent="27" vertex="1">
          <mxGeometry x="6.98" y="7.8100000000000005" width="46.83" height="32.13" as="geometry" />
        </mxCell>
        <mxCell id="30" style="vsdxID=1682;fillColor=#FFFFFF;gradientColor=none;shape=stencil(lVjLctswDPwaXTEkwOc5Tf8jM3FqT90447ivvy88mrQh3BDamyzvSrtcUAS5yN3r/uFlt3B4vZxPX3c/D4+X/SKfFubD8353Plz0apH7Re6eTufdl/Pp+/Pj+vvl4Yq8Xn07/bg+4dfK64UCX1kcfq93UiBe73xeCcfD8ztC61QrQuhCPBIKU6sfE2IICHyDg9Fya9TzQAgTu0K5bgZXEhnAnEjKfGwggqPdGC2UIpRtoFggAlNHstLiKQki+BaM50Blc141E/fN4EY8aveyShQzRJhrH43WQrXPR8boD5QTRGBLcMKqnbhBBN+DMc22HCaBlWo/DDNwpzhq17Cm2jNFCD+XPvpU6UaNk1UJ1AUisH2Dk1XRLw9DBN+DMZ3sBIs0eX5u1Hg7XEcojLXmBFZ0XYESdvWPdnO1K4sTWY4k0FKthDY6cCLTIc0ZIvgejOlMfUxBqMws6EeLEXy0c54LyQRfqFcE7+of/SYdoAboTzotEb9JIy6AftVjSsLFO/pv/Haog1ADFepRlJCgGk2NItSkbPAwmpabtWMemghVJGRhO0bz0KRRQYrC12/8NpI8H6AbAwHqVSRagpOZaF0LRPA93LQeZQytarefPn4D68dUIIL+PZp+2wn9v6FI9vlzuK/fpByoIlXN2S5PDl53VkiVcqcMzQJX/+hX86pQC8Xa0UFNGgc7750i1YpIBSL4HoxpJkFCjsV2gQ4+2a7XCTm87ZA24l39o9/Y7frqZBb/DvhWwo0D77ijEtSkbbBgPAt1JOMGtlzESGIxEiMV4as3B1r2K+EtNVa+g4fOpnR/C+2gffF68e8o7+lwPL7/xx766a31wFDu/wA=);strokeColor=#FFFFFF;points=[];labelBackgroundColor=none;rounded=0;html=1;whiteSpace=wrap;" parent="27" vertex="1">
          <mxGeometry x="8.18" y="51.870000000000005" width="42.75" height="8.1" as="geometry" />
        </mxCell>
        <mxCell id="31" value="&lt;div style=&quot;font-size: 1px&quot;&gt;&lt;p style=&quot;text-align:left;margin-left:0;margin-right:0;margin-top:0px;margin-bottom:0px;text-indent:0;vertical-align:top;direction:ltr;&quot;&gt;&lt;/p&gt;&lt;/div&gt;" style="verticalAlign=top;align=left;overflow=width;vsdxID=1683;fillColor=#FFFFFF;gradientColor=none;shape=stencil(nZBLDoAgDERP0z3SIyjew0SURgSD+Lu9kMZoXLhwN9O+tukAlrNpJg1SzDH4QW/URgNYgZTkjA4UkwJUgGXng+6DX1zLfmoymdXo17xh5zmRJ6Q42BWCfc2oJfdAr+Yv+AP9Cb7OJ3H/2JG1HNGz/84klThPVCc=);strokeColor=none;points=[];labelBackgroundColor=none;rounded=0;html=1;whiteSpace=wrap;" parent="26" vertex="1">
          <mxGeometry x="7.41" y="8.21" width="46.07" height="31.330000000000002" as="geometry" />
        </mxCell>
        <mxCell id="32" value="&lt;div style=&quot;font-size: 1px&quot;&gt;&lt;font style=&quot;font-size:16.93px;font-family:Calibri;color:#000000;direction:ltr;letter-spacing:0px;line-height:120%;opacity:1&quot;&gt;PC436_2&lt;br/&gt;&lt;/font&gt;&lt;/div&gt;" style="verticalAlign=middle;align=center;overflow=width;vsdxID=1757;fillColor=none;gradientColor=none;shape=stencil(nZBLDoAgDERP0z3SIyjew0SURgSD+Lu9kMZoXLhwN9O+tukAlrNpJg1SzDH4QW/URgNYgZTkjA4UkwJUgGXng+6DX1zLfmoymdXo17xh5zmRJ6Q42BWCfc2oJfdAr+Yv+AP9Cb7OJ3H/2JG1HNGz/84klThPVCc=);strokeColor=none;points=[];labelBackgroundColor=none;rounded=0;html=1;whiteSpace=wrap;" parent="25" vertex="1">
          <mxGeometry y="82.19" width="187.84" height="15.74" as="geometry" />
        </mxCell>
        <UserObject label="" tags="Фон" id="33">
          <mxCell style="vsdxID=1771;fillColor=none;gradientColor=none;points=[];labelBackgroundColor=none;rounded=0;strokeColor=none;html=1;whiteSpace=wrap;" parent="1" vertex="1">
            <mxGeometry x="808.14" y="368.95" width="187.84" height="81.3" as="geometry" />
          </mxCell>
        </UserObject>
        <mxCell id="34" style="vsdxID=1685;fillColor=none;gradientColor=none;points=[];labelBackgroundColor=none;rounded=0;strokeColor=none;html=1;whiteSpace=wrap;" parent="33" vertex="1">
          <mxGeometry x="64.35" y="14.85" width="60.120000000000005" height="66.45" as="geometry" />
        </mxCell>
        <mxCell id="35" style="vsdxID=1686;fillColor=none;gradientColor=none;points=[[0.5,0.5,0]];labelBackgroundColor=none;rounded=0;strokeColor=none;html=1;whiteSpace=wrap;" parent="34" vertex="1">
          <mxGeometry width="60.120000000000005" height="66.45" as="geometry" />
        </mxCell>
        <mxCell id="36" style="vsdxID=1687;fillColor=#33cccc;gradientColor=none;shape=stencil(pZPbDoMgDIafhlvCQQSvnXsPE3GSOTHITm8/GVkmY25hu2vL9zd/SQtoOXX1KAFBkzV6L8+qsR2gG0CIGjpplJ0jQCtAy1YbuTP6ODQ+H2tHuuigT67DxesKBnHhVARdfQXds62HezUsYAYF+ZnNOWRsnY+NJAsCN+GYGKEAfeRvOwsWsFxAvg7jFDjBxBfH4XiMQ5GnfF5GIM7+E3yeNHaUykeG5uC5xa3qe38Ey/fXrZ9L/mJodQM=);points=[];labelBackgroundColor=none;rounded=0;html=1;whiteSpace=wrap;" parent="35" vertex="1">
          <mxGeometry y="3.88" width="60.120000000000005" height="58.67" as="geometry" />
        </mxCell>
        <mxCell id="37" style="vsdxID=1688;fillColor=#33cccc;gradientColor=none;shape=stencil(UzV2Ls5ILEhVNTIoLinKz04tz0wpyVA1dlE1MsrMy0gtyiwBslSNXVWNndPyi1LTi/JL81Ig/IJEkEoQKze/DGRCBUSfoYEBSI+RQSWED+G5QZTmZOYhKSVTIcwGrErRrSdJMR2UAhmIkEvLzMmBBDyyPHpIA4UgsWTsCgA=);points=[];labelBackgroundColor=none;rounded=0;html=1;whiteSpace=wrap;" parent="35" vertex="1">
          <mxGeometry x="6.98" y="7.8100000000000005" width="46.83" height="32.13" as="geometry" />
        </mxCell>
        <mxCell id="38" style="vsdxID=1689;fillColor=#FFFFFF;gradientColor=none;shape=stencil(lVjLctswDPwaXTEkwOc5Tf8jM3FqT90447ivvy88mrQh3BDamyzvSrtcUAS5yN3r/uFlt3B4vZxPX3c/D4+X/SKfFubD8353Plz0apH7Re6eTufdl/Pp+/Pj+vvl4Yq8Xn07/bg+4dfK64UCX1kcfq93UiBe73xeCcfD8ztC61QrQuhCPBIKU6sfE2IICHyDg9Fya9TzQAgTu0K5bgZXEhnAnEjKfGwggqPdGC2UIpRtoFggAlNHstLiKQki+BaM50Blc141E/fN4EY8aveyShQzRJhrH43WQrXPR8boD5QTRGBLcMKqnbhBBN+DMc22HCaBlWo/DDNwpzhq17Cm2jNFCD+XPvpU6UaNk1UJ1AUisH2Dk1XRLw9DBN+DMZ3sBIs0eX5u1Hg7XEcojLXmBFZ0XYESdvWPdnO1K4sTWY4k0FKthDY6cCLTIc0ZIvgejOlMfUxBqMws6EeLEXy0c54LyQRfqFcE7+of/SYdoAboTzotEb9JIy6AftVjSsLFO/pv/Haog1ADFepRlJCgGk2NItSkbPAwmpabtWMemghVJGRhO0bz0KRRQYrC12/8NpI8H6AbAwHqVSRagpOZaF0LRPA93LQeZQytarefPn4D68dUIIL+PZp+2wn9v6FI9vlzuK/fpByoIlXN2S5PDl53VkiVcqcMzQJX/+hX86pQC8Xa0UFNGgc7750i1YpIBSL4HoxpJkFCjsV2gQ4+2a7XCTm87ZA24l39o9/Y7frqZBb/DvhWwo0D77ijEtSkbbBgPAt1JOMGtlzESGIxEiMV4as3B1r2K+EtNVa+g4fOpnR/C+2gffF68e8o7+lwPL7/xx766a31wFDu/wA=);strokeColor=#FFFFFF;points=[];labelBackgroundColor=none;rounded=0;html=1;whiteSpace=wrap;" parent="35" vertex="1">
          <mxGeometry x="8.18" y="51.870000000000005" width="42.75" height="8.1" as="geometry" />
        </mxCell>
        <mxCell id="39" value="&lt;div style=&quot;font-size: 1px&quot;&gt;&lt;p style=&quot;text-align:left;margin-left:0;margin-right:0;margin-top:0px;margin-bottom:0px;text-indent:0;vertical-align:top;direction:ltr;&quot;&gt;&lt;/p&gt;&lt;/div&gt;" style="verticalAlign=top;align=left;overflow=width;vsdxID=1690;fillColor=#FFFFFF;gradientColor=none;shape=stencil(nZBLDoAgDERP0z3SIyjew0SURgSD+Lu9kMZoXLhwN9O+tukAlrNpJg1SzDH4QW/URgNYgZTkjA4UkwJUgGXng+6DX1zLfmoymdXo17xh5zmRJ6Q42BWCfc2oJfdAr+Yv+AP9Cb7OJ3H/2JG1HNGz/84klThPVCc=);strokeColor=none;points=[];labelBackgroundColor=none;rounded=0;html=1;whiteSpace=wrap;" parent="34" vertex="1">
          <mxGeometry x="7.41" y="8.21" width="46.07" height="31.330000000000002" as="geometry" />
        </mxCell>
        <mxCell id="40" value="&lt;div style=&quot;font-size: 1px&quot;&gt;&lt;font style=&quot;font-size:16.93px;font-family:Calibri;color:#000000;direction:ltr;letter-spacing:0px;line-height:120%;opacity:1&quot;&gt;PC436_3&lt;br/&gt;&lt;/font&gt;&lt;/div&gt;" style="verticalAlign=middle;align=center;overflow=width;vsdxID=1758;fillColor=none;gradientColor=none;shape=stencil(nZBLDoAgDERP0z3SIyjew0SURgSD+Lu9kMZoXLhwN9O+tukAlrNpJg1SzDH4QW/URgNYgZTkjA4UkwJUgGXng+6DX1zLfmoymdXo17xh5zmRJ6Q42BWCfc2oJfdAr+Yv+AP9Cb7OJ3H/2JG1HNGz/84klThPVCc=);strokeColor=none;points=[];labelBackgroundColor=none;rounded=0;html=1;whiteSpace=wrap;" parent="33" vertex="1">
          <mxGeometry y="81.3" width="187.84" height="15.74" as="geometry" />
        </mxCell>
        <UserObject label="" tags="Фон" id="41">
          <mxCell style="vsdxID=1772;fillColor=none;gradientColor=none;points=[];labelBackgroundColor=none;rounded=0;strokeColor=none;html=1;whiteSpace=wrap;" parent="1" vertex="1">
            <mxGeometry x="705.74" y="443" width="187.84" height="83.15" as="geometry" />
          </mxCell>
        </UserObject>
        <UserObject label="" tags="Фон" id="42">
          <mxCell style="vsdxID=1773;fillColor=none;gradientColor=none;points=[];labelBackgroundColor=none;rounded=0;strokeColor=none;html=1;whiteSpace=wrap;" parent="1" vertex="1">
            <mxGeometry x="882.0500000000001" y="368.06" width="187.84" height="82.19" as="geometry" />
          </mxCell>
        </UserObject>
        <mxCell id="43" style="vsdxID=1691;fillColor=none;gradientColor=none;points=[];labelBackgroundColor=none;rounded=0;strokeColor=none;html=1;whiteSpace=wrap;" parent="42" vertex="1">
          <mxGeometry x="63.85" y="15.74" width="60.120000000000005" height="66.45" as="geometry" />
        </mxCell>
        <mxCell id="44" style="vsdxID=1692;fillColor=none;gradientColor=none;points=[[0.5,0.5,0]];labelBackgroundColor=none;rounded=0;strokeColor=none;html=1;whiteSpace=wrap;" parent="43" vertex="1">
          <mxGeometry width="60.120000000000005" height="66.45" as="geometry" />
        </mxCell>
        <mxCell id="45" style="vsdxID=1693;fillColor=#33cccc;gradientColor=none;shape=stencil(pZPbDoMgDIafhlvCQQSvnXsPE3GSOTHITm8/GVkmY25hu2vL9zd/SQtoOXX1KAFBkzV6L8+qsR2gG0CIGjpplJ0jQCtAy1YbuTP6ODQ+H2tHuuigT67DxesKBnHhVARdfQXds62HezUsYAYF+ZnNOWRsnY+NJAsCN+GYGKEAfeRvOwsWsFxAvg7jFDjBxBfH4XiMQ5GnfF5GIM7+E3yeNHaUykeG5uC5xa3qe38Ey/fXrZ9L/mJodQM=);points=[];labelBackgroundColor=none;rounded=0;html=1;whiteSpace=wrap;" parent="44" vertex="1">
          <mxGeometry y="3.88" width="60.120000000000005" height="58.67" as="geometry" />
        </mxCell>
        <mxCell id="46" style="vsdxID=1694;fillColor=#33cccc;gradientColor=none;shape=stencil(UzV2Ls5ILEhVNTIoLinKz04tz0wpyVA1dlE1MsrMy0gtyiwBslSNXVWNndPyi1LTi/JL81Ig/IJEkEoQKze/DGRCBUSfoYEBSI+RQSWED+G5QZTmZOYhKSVTIcwGrErRrSdJMR2UAhmIkEvLzMmBBDyyPHpIA4UgsWTsCgA=);points=[];labelBackgroundColor=none;rounded=0;html=1;whiteSpace=wrap;" parent="44" vertex="1">
          <mxGeometry x="6.98" y="7.8100000000000005" width="46.83" height="32.13" as="geometry" />
        </mxCell>
        <mxCell id="47" style="vsdxID=1695;fillColor=#FFFFFF;gradientColor=none;shape=stencil(lVjLctswDPwaXTEkwOc5Tf8jM3FqT90447ivvy88mrQh3BDamyzvSrtcUAS5yN3r/uFlt3B4vZxPX3c/D4+X/SKfFubD8353Plz0apH7Re6eTufdl/Pp+/Pj+vvl4Yq8Xn07/bg+4dfK64UCX1kcfq93UiBe73xeCcfD8ztC61QrQuhCPBIKU6sfE2IICHyDg9Fya9TzQAgTu0K5bgZXEhnAnEjKfGwggqPdGC2UIpRtoFggAlNHstLiKQki+BaM50Blc141E/fN4EY8aveyShQzRJhrH43WQrXPR8boD5QTRGBLcMKqnbhBBN+DMc22HCaBlWo/DDNwpzhq17Cm2jNFCD+XPvpU6UaNk1UJ1AUisH2Dk1XRLw9DBN+DMZ3sBIs0eX5u1Hg7XEcojLXmBFZ0XYESdvWPdnO1K4sTWY4k0FKthDY6cCLTIc0ZIvgejOlMfUxBqMws6EeLEXy0c54LyQRfqFcE7+of/SYdoAboTzotEb9JIy6AftVjSsLFO/pv/Haog1ADFepRlJCgGk2NItSkbPAwmpabtWMemghVJGRhO0bz0KRRQYrC12/8NpI8H6AbAwHqVSRagpOZaF0LRPA93LQeZQytarefPn4D68dUIIL+PZp+2wn9v6FI9vlzuK/fpByoIlXN2S5PDl53VkiVcqcMzQJX/+hX86pQC8Xa0UFNGgc7750i1YpIBSL4HoxpJkFCjsV2gQ4+2a7XCTm87ZA24l39o9/Y7frqZBb/DvhWwo0D77ijEtSkbbBgPAt1JOMGtlzESGIxEiMV4as3B1r2K+EtNVa+g4fOpnR/C+2gffF68e8o7+lwPL7/xx766a31wFDu/wA=);strokeColor=#FFFFFF;points=[];labelBackgroundColor=none;rounded=0;html=1;whiteSpace=wrap;" parent="44" vertex="1">
          <mxGeometry x="8.18" y="51.870000000000005" width="42.75" height="8.1" as="geometry" />
        </mxCell>
        <mxCell id="48" value="&lt;div style=&quot;font-size: 1px&quot;&gt;&lt;p style=&quot;text-align:left;margin-left:0;margin-right:0;margin-top:0px;margin-bottom:0px;text-indent:0;vertical-align:top;direction:ltr;&quot;&gt;&lt;/p&gt;&lt;/div&gt;" style="verticalAlign=top;align=left;overflow=width;vsdxID=1696;fillColor=#FFFFFF;gradientColor=none;shape=stencil(nZBLDoAgDERP0z3SIyjew0SURgSD+Lu9kMZoXLhwN9O+tukAlrNpJg1SzDH4QW/URgNYgZTkjA4UkwJUgGXng+6DX1zLfmoymdXo17xh5zmRJ6Q42BWCfc2oJfdAr+Yv+AP9Cb7OJ3H/2JG1HNGz/84klThPVCc=);strokeColor=none;points=[];labelBackgroundColor=none;rounded=0;html=1;whiteSpace=wrap;" parent="43" vertex="1">
          <mxGeometry x="7.41" y="8.21" width="46.07" height="31.330000000000002" as="geometry" />
        </mxCell>
        <mxCell id="49" value="&lt;div style=&quot;font-size: 1px&quot;&gt;&lt;font style=&quot;font-size:16.93px;font-family:Calibri;color:#000000;direction:ltr;letter-spacing:0px;line-height:120%;opacity:1&quot;&gt;PC436_4&lt;br/&gt;&lt;/font&gt;&lt;/div&gt;" style="verticalAlign=middle;align=center;overflow=width;vsdxID=1759;fillColor=none;gradientColor=none;shape=stencil(nZBLDoAgDERP0z3SIyjew0SURgSD+Lu9kMZoXLhwN9O+tukAlrNpJg1SzDH4QW/URgNYgZTkjA4UkwJUgGXng+6DX1zLfmoymdXo17xh5zmRJ6Q42BWCfc2oJfdAr+Yv+AP9Cb7OJ3H/2JG1HNGz/84klThPVCc=);strokeColor=none;points=[];labelBackgroundColor=none;rounded=0;html=1;whiteSpace=wrap;" parent="42" vertex="1">
          <mxGeometry x="2.02" y="82.19" width="187.84" height="15.74" as="geometry" />
        </mxCell>
        <UserObject label="" tags="Фон" id="50">
          <mxCell style="vsdxID=1774;fillColor=none;gradientColor=none;points=[];labelBackgroundColor=none;rounded=0;strokeColor=none;html=1;whiteSpace=wrap;" parent="1" vertex="1">
            <mxGeometry x="643.37" y="383.81" width="187.84" height="83.15" as="geometry" />
          </mxCell>
        </UserObject>
        <mxCell id="51" style="vsdxID=1703;fillColor=none;gradientColor=none;points=[];labelBackgroundColor=none;rounded=0;strokeColor=none;html=1;whiteSpace=wrap;" parent="50" vertex="1">
          <mxGeometry x="69.3" width="60.120000000000005" height="66.45" as="geometry" />
        </mxCell>
        <mxCell id="52" style="vsdxID=1704;fillColor=none;gradientColor=none;points=[[0.5,0.5,0]];labelBackgroundColor=none;rounded=0;strokeColor=none;html=1;whiteSpace=wrap;" parent="51" vertex="1">
          <mxGeometry width="60.120000000000005" height="66.45" as="geometry" />
        </mxCell>
        <mxCell id="53" style="vsdxID=1705;fillColor=#33cccc;gradientColor=none;shape=stencil(pZPbDoMgDIafhlvCQQSvnXsPE3GSOTHITm8/GVkmY25hu2vL9zd/SQtoOXX1KAFBkzV6L8+qsR2gG0CIGjpplJ0jQCtAy1YbuTP6ODQ+H2tHuuigT67DxesKBnHhVARdfQXds62HezUsYAYF+ZnNOWRsnY+NJAsCN+GYGKEAfeRvOwsWsFxAvg7jFDjBxBfH4XiMQ5GnfF5GIM7+E3yeNHaUykeG5uC5xa3qe38Ey/fXrZ9L/mJodQM=);points=[];labelBackgroundColor=none;rounded=0;html=1;whiteSpace=wrap;" parent="52" vertex="1">
          <mxGeometry y="3.88" width="60.120000000000005" height="58.67" as="geometry" />
        </mxCell>
        <mxCell id="54" style="vsdxID=1706;fillColor=#33cccc;gradientColor=none;shape=stencil(UzV2Ls5ILEhVNTIoLinKz04tz0wpyVA1dlE1MsrMy0gtyiwBslSNXVWNndPyi1LTi/JL81Ig/IJEkEoQKze/DGRCBUSfoYEBSI+RQSWED+G5QZTmZOYhKSVTIcwGrErRrSdJMR2UAhmIkEvLzMmBBDyyPHpIA4UgsWTsCgA=);points=[];labelBackgroundColor=none;rounded=0;html=1;whiteSpace=wrap;" parent="52" vertex="1">
          <mxGeometry x="6.98" y="7.8100000000000005" width="46.83" height="32.13" as="geometry" />
        </mxCell>
        <mxCell id="55" style="vsdxID=1707;fillColor=#FFFFFF;gradientColor=none;shape=stencil(lVjLctswDPwaXTEkwOc5Tf8jM3FqT90447ivvy88mrQh3BDamyzvSrtcUAS5yN3r/uFlt3B4vZxPX3c/D4+X/SKfFubD8353Plz0apH7Re6eTufdl/Pp+/Pj+vvl4Yq8Xn07/bg+4dfK64UCX1kcfq93UiBe73xeCcfD8ztC61QrQuhCPBIKU6sfE2IICHyDg9Fya9TzQAgTu0K5bgZXEhnAnEjKfGwggqPdGC2UIpRtoFggAlNHstLiKQki+BaM50Blc141E/fN4EY8aveyShQzRJhrH43WQrXPR8boD5QTRGBLcMKqnbhBBN+DMc22HCaBlWo/DDNwpzhq17Cm2jNFCD+XPvpU6UaNk1UJ1AUisH2Dk1XRLw9DBN+DMZ3sBIs0eX5u1Hg7XEcojLXmBFZ0XYESdvWPdnO1K4sTWY4k0FKthDY6cCLTIc0ZIvgejOlMfUxBqMws6EeLEXy0c54LyQRfqFcE7+of/SYdoAboTzotEb9JIy6AftVjSsLFO/pv/Haog1ADFepRlJCgGk2NItSkbPAwmpabtWMemghVJGRhO0bz0KRRQYrC12/8NpI8H6AbAwHqVSRagpOZaF0LRPA93LQeZQytarefPn4D68dUIIL+PZp+2wn9v6FI9vlzuK/fpByoIlXN2S5PDl53VkiVcqcMzQJX/+hX86pQC8Xa0UFNGgc7750i1YpIBSL4HoxpJkFCjsV2gQ4+2a7XCTm87ZA24l39o9/Y7frqZBb/DvhWwo0D77ijEtSkbbBgPAt1JOMGtlzESGIxEiMV4as3B1r2K+EtNVa+g4fOpnR/C+2gffF68e8o7+lwPL7/xx766a31wFDu/wA=);strokeColor=#FFFFFF;points=[];labelBackgroundColor=none;rounded=0;html=1;whiteSpace=wrap;" parent="52" vertex="1">
          <mxGeometry x="8.18" y="51.870000000000005" width="42.75" height="8.1" as="geometry" />
        </mxCell>
        <mxCell id="56" value="&lt;div style=&quot;font-size: 1px&quot;&gt;&lt;p style=&quot;text-align:left;margin-left:0;margin-right:0;margin-top:0px;margin-bottom:0px;text-indent:0;vertical-align:top;direction:ltr;&quot;&gt;&lt;/p&gt;&lt;/div&gt;" style="verticalAlign=top;align=left;overflow=width;vsdxID=1708;fillColor=#FFFFFF;gradientColor=none;shape=stencil(nZBLDoAgDERP0z3SIyjew0SURgSD+Lu9kMZoXLhwN9O+tukAlrNpJg1SzDH4QW/URgNYgZTkjA4UkwJUgGXng+6DX1zLfmoymdXo17xh5zmRJ6Q42BWCfc2oJfdAr+Yv+AP9Cb7OJ3H/2JG1HNGz/84klThPVCc=);strokeColor=none;points=[];labelBackgroundColor=none;rounded=0;html=1;whiteSpace=wrap;" parent="51" vertex="1">
          <mxGeometry x="7.41" y="8.21" width="46.07" height="31.330000000000002" as="geometry" />
        </mxCell>
        <mxCell id="57" value="&lt;div style=&quot;font-size: 1px&quot;&gt;&lt;font style=&quot;font-size:16.93px;font-family:Calibri;color:#000000;direction:ltr;letter-spacing:0px;line-height:120%;opacity:1&quot;&gt;PC436_1&lt;br/&gt;&lt;/font&gt;&lt;/div&gt;" style="verticalAlign=middle;align=center;overflow=width;vsdxID=1756;fillColor=none;gradientColor=none;shape=stencil(nZBLDoAgDERP0z3SIyjew0SURgSD+Lu9kMZoXLhwN9O+tukAlrNpJg1SzDH4QW/URgNYgZTkjA4UkwJUgGXng+6DX1zLfmoymdXo17xh5zmRJ6Q42BWCfc2oJfdAr+Yv+AP9Cb7OJ3H/2JG1HNGz/84klThPVCc=);strokeColor=none;points=[];labelBackgroundColor=none;rounded=0;html=1;whiteSpace=wrap;" parent="50" vertex="1">
          <mxGeometry x="7.41" y="67.4" width="187.84" height="15.74" as="geometry" />
        </mxCell>
        <UserObject label="" tags="Фон" id="58">
          <mxCell style="vsdxID=1775;fillColor=none;gradientColor=none;points=[];labelBackgroundColor=none;rounded=0;strokeColor=none;html=1;whiteSpace=wrap;" parent="1" vertex="1">
            <mxGeometry x="957.5" y="383.81" width="187.84" height="82.19" as="geometry" />
          </mxCell>
        </UserObject>
        <mxCell id="59" style="vsdxID=1697;fillColor=none;gradientColor=none;points=[];labelBackgroundColor=none;rounded=0;strokeColor=none;html=1;whiteSpace=wrap;" parent="58" vertex="1">
          <mxGeometry x="63.85" width="60.120000000000005" height="66.45" as="geometry" />
        </mxCell>
        <mxCell id="60" style="vsdxID=1698;fillColor=none;gradientColor=none;points=[[0.5,0.5,0]];labelBackgroundColor=none;rounded=0;strokeColor=none;html=1;whiteSpace=wrap;" parent="59" vertex="1">
          <mxGeometry width="60.120000000000005" height="66.45" as="geometry" />
        </mxCell>
        <mxCell id="61" style="vsdxID=1699;fillColor=#33cccc;gradientColor=none;shape=stencil(pZPbDoMgDIafhlvCQQSvnXsPE3GSOTHITm8/GVkmY25hu2vL9zd/SQtoOXX1KAFBkzV6L8+qsR2gG0CIGjpplJ0jQCtAy1YbuTP6ODQ+H2tHuuigT67DxesKBnHhVARdfQXds62HezUsYAYF+ZnNOWRsnY+NJAsCN+GYGKEAfeRvOwsWsFxAvg7jFDjBxBfH4XiMQ5GnfF5GIM7+E3yeNHaUykeG5uC5xa3qe38Ey/fXrZ9L/mJodQM=);points=[];labelBackgroundColor=none;rounded=0;html=1;whiteSpace=wrap;" parent="60" vertex="1">
          <mxGeometry y="3.88" width="60.120000000000005" height="58.67" as="geometry" />
        </mxCell>
        <mxCell id="62" style="vsdxID=1700;fillColor=#33cccc;gradientColor=none;shape=stencil(UzV2Ls5ILEhVNTIoLinKz04tz0wpyVA1dlE1MsrMy0gtyiwBslSNXVWNndPyi1LTi/JL81Ig/IJEkEoQKze/DGRCBUSfoYEBSI+RQSWED+G5QZTmZOYhKSVTIcwGrErRrSdJMR2UAhmIkEvLzMmBBDyyPHpIA4UgsWTsCgA=);points=[];labelBackgroundColor=none;rounded=0;html=1;whiteSpace=wrap;" parent="60" vertex="1">
          <mxGeometry x="6.98" y="7.8100000000000005" width="46.83" height="32.13" as="geometry" />
        </mxCell>
        <mxCell id="63" style="vsdxID=1701;fillColor=#FFFFFF;gradientColor=none;shape=stencil(lVjLctswDPwaXTEkwOc5Tf8jM3FqT90447ivvy88mrQh3BDamyzvSrtcUAS5yN3r/uFlt3B4vZxPX3c/D4+X/SKfFubD8353Plz0apH7Re6eTufdl/Pp+/Pj+vvl4Yq8Xn07/bg+4dfK64UCX1kcfq93UiBe73xeCcfD8ztC61QrQuhCPBIKU6sfE2IICHyDg9Fya9TzQAgTu0K5bgZXEhnAnEjKfGwggqPdGC2UIpRtoFggAlNHstLiKQki+BaM50Blc141E/fN4EY8aveyShQzRJhrH43WQrXPR8boD5QTRGBLcMKqnbhBBN+DMc22HCaBlWo/DDNwpzhq17Cm2jNFCD+XPvpU6UaNk1UJ1AUisH2Dk1XRLw9DBN+DMZ3sBIs0eX5u1Hg7XEcojLXmBFZ0XYESdvWPdnO1K4sTWY4k0FKthDY6cCLTIc0ZIvgejOlMfUxBqMws6EeLEXy0c54LyQRfqFcE7+of/SYdoAboTzotEb9JIy6AftVjSsLFO/pv/Haog1ADFepRlJCgGk2NItSkbPAwmpabtWMemghVJGRhO0bz0KRRQYrC12/8NpI8H6AbAwHqVSRagpOZaF0LRPA93LQeZQytarefPn4D68dUIIL+PZp+2wn9v6FI9vlzuK/fpByoIlXN2S5PDl53VkiVcqcMzQJX/+hX86pQC8Xa0UFNGgc7750i1YpIBSL4HoxpJkFCjsV2gQ4+2a7XCTm87ZA24l39o9/Y7frqZBb/DvhWwo0D77ijEtSkbbBgPAt1JOMGtlzESGIxEiMV4as3B1r2K+EtNVa+g4fOpnR/C+2gffF68e8o7+lwPL7/xx766a31wFDu/wA=);strokeColor=#FFFFFF;points=[];labelBackgroundColor=none;rounded=0;html=1;whiteSpace=wrap;" parent="60" vertex="1">
          <mxGeometry x="8.18" y="51.870000000000005" width="42.75" height="8.1" as="geometry" />
        </mxCell>
        <mxCell id="64" value="&lt;div style=&quot;font-size: 1px&quot;&gt;&lt;p style=&quot;text-align:left;margin-left:0;margin-right:0;margin-top:0px;margin-bottom:0px;text-indent:0;vertical-align:top;direction:ltr;&quot;&gt;&lt;/p&gt;&lt;/div&gt;" style="verticalAlign=top;align=left;overflow=width;vsdxID=1702;fillColor=#FFFFFF;gradientColor=none;shape=stencil(nZBLDoAgDERP0z3SIyjew0SURgSD+Lu9kMZoXLhwN9O+tukAlrNpJg1SzDH4QW/URgNYgZTkjA4UkwJUgGXng+6DX1zLfmoymdXo17xh5zmRJ6Q42BWCfc2oJfdAr+Yv+AP9Cb7OJ3H/2JG1HNGz/84klThPVCc=);strokeColor=none;points=[];labelBackgroundColor=none;rounded=0;html=1;whiteSpace=wrap;" parent="59" vertex="1">
          <mxGeometry x="7.41" y="8.21" width="46.07" height="31.330000000000002" as="geometry" />
        </mxCell>
        <mxCell id="65" value="&lt;div style=&quot;font-size: 1px&quot;&gt;&lt;font style=&quot;font-size:16.93px;font-family:Calibri;color:#000000;direction:ltr;letter-spacing:0px;line-height:120%;opacity:1&quot;&gt;PC436_5&lt;br/&gt;&lt;/font&gt;&lt;/div&gt;" style="verticalAlign=middle;align=center;overflow=width;vsdxID=1760;fillColor=none;gradientColor=none;shape=stencil(nZBLDoAgDERP0z3SIyjew0SURgSD+Lu9kMZoXLhwN9O+tukAlrNpJg1SzDH4QW/URgNYgZTkjA4UkwJUgGXng+6DX1zLfmoymdXo17xh5zmRJ6Q42BWCfc2oJfdAr+Yv+AP9Cb7OJ3H/2JG1HNGz/84klThPVCc=);strokeColor=none;points=[];labelBackgroundColor=none;rounded=0;html=1;whiteSpace=wrap;" parent="58" vertex="1">
          <mxGeometry y="66.45" width="187.84" height="15.74" as="geometry" />
        </mxCell>
        <UserObject label="" tags="Фон" id="66">
          <mxCell style="vsdxID=1776;fillColor=#FFFFFF;gradientColor=none;shape=stencil(UzV2Ls5ILEhVNTIoLinKz04tz0wpyVA1dlE1MsrMy0gtyiwBslSNXVWNndPyi1LTi/JL81Ig/IJEkEoQKze/DGRCBUSfoYEBSI+RQSWED+G5QZTmZObhUWpqomdkiFs5BYphNkGVAhkI50N8jiyH7lWgECSYjF0B);points=[];labelBackgroundColor=#ffffff;rounded=0;html=1;whiteSpace=wrap;" parent="1" vertex="1">
            <mxGeometry x="745" y="325.26" width="120.10000000000001" height="60.52" as="geometry" />
          </mxCell>
        </UserObject>
        <UserObject label="" tags="Фон" id="67">
          <mxCell style="vsdxID=1777;fillColor=#FFFFFF;gradientColor=none;shape=stencil(UzV2Ls5ILEhVNTIoLinKz04tz0wpyVA1dlE1MsrMy0gtyiwBslSNXVWNndPyi1LTi/JL81Ig/IJEkEoQKze/DGRCBUSfoYEBSI+RQSWED+G5QZTmZObhUWpmrmdiiFs5BYphNkGVAhkI50N8jiyH7lWgECSYjF0B);points=[];labelBackgroundColor=#ffffff;rounded=0;html=1;whiteSpace=wrap;" parent="1" vertex="1">
            <mxGeometry x="824.45" y="325.26" width="49.89" height="62.370000000000005" as="geometry" />
          </mxCell>
        </UserObject>
        <UserObject label="" tags="Фон" id="68">
          <mxCell style="vsdxID=1779;fillColor=#FFFFFF;gradientColor=none;shape=stencil(UzV2Ls5ILEhVNTIoLinKz04tz0wpyVA1dlE1MsrMy0gtyiwBslSNXVWNndPyi1LTi/JL81Ig/IJEkEoQKze/DGRCBUSfAUiHkUElMs8NojAnMw+nQjMzPTMT3IoNDShSDuNDFQMZCOdDfI4sh+5VoBAkmIxdAQ==);points=[];labelBackgroundColor=#ffffff;rounded=0;html=1;whiteSpace=wrap;" parent="1" vertex="1">
            <mxGeometry x="937.1700000000001" y="325.26" width="38.800000000000004" height="62.370000000000005" as="geometry" />
          </mxCell>
        </UserObject>
        <UserObject label="" tags="Фон" id="69">
          <mxCell style="vsdxID=1780;fillColor=#FFFFFF;gradientColor=none;shape=stencil(UzV2Ls5ILEhVNTIoLinKz04tz0wpyVA1dlE1MsrMy0gtyiwBslSNXVWNndPyi1LTi/JL81Ig/IJEkEoQKze/DGRCBUSfAUiHkUElMs8NojAnMw+nQhMLPVNT3IoNDShSDuNDFQMZCOdDfI4sh+5VoBAkmIxdAQ==);points=[];labelBackgroundColor=#ffffff;rounded=0;html=1;whiteSpace=wrap;" parent="1" vertex="1">
            <mxGeometry x="946.41" y="325.26" width="105.03" height="66.76" as="geometry" />
          </mxCell>
        </UserObject>
        <mxCell id="70" parent="1" vertex="1">
          <mxGeometry x="903.59" y="387.63" as="geometry" />
        </mxCell>
        <UserObject label="" tags="Фон" id="71">
          <mxCell style="vsdxID=1781;edgeStyle=none;startArrow=none;endArrow=none;startSize=5;endSize=5;spacingTop=0;spacingBottom=0;spacingLeft=0;spacingRight=0;verticalAlign=middle;html=1;labelBackgroundColor=#ffffff;rounded=0;exitX=0.5000454338936847;exitY=1.0001168360789812;exitDx=0;exitDy=0;exitPerimeter=0;" parent="1" source="14" target="70" edge="1">
            <mxGeometry relative="1" as="geometry">
              <Array as="points" />
            </mxGeometry>
          </mxCell>
        </UserObject>
        <UserObject label="" tags="Соединительная_линия symbols 1" id="74">
          <mxCell parent="1" vertex="1" visible="0">
            <mxGeometry as="geometry" />
          </mxCell>
        </UserObject>
        <mxCell id="iXu-SbAaxqi6xUOfro3d-76" value="" style="shape=image;verticalLabelPosition=bottom;labelBackgroundColor=default;verticalAlign=top;aspect=fixed;imageAspect=0;image=data:image/png,iVBORw0KGgoAAAANSUhEUgAAA0kAAACQCAIAAABSwrdtAAAgAElEQVR4Ae1dW5bjKgycdWVBWU9Wk830z91J7kEgkATIduIHtqs/JoCeVAmspLun/33wBQSAABAAAkAACAABIHAVBP71NvIPX0AACAABIAAEgAAQAAJDItDr3z6fj9fbOWYQAQEgsBYC//51j+FaIeBnKQIgZSli0D8QAZTrgeAfFdonvftQ8c2O2gziAoHrIYCzNiCnIGVAUpBSDwGUaw+ZC6/7pKO3uzD12No5EPCP6Dn2cLksQcrlKL3yhlCuV2a3szefdPR2HdiwDAT2QsA/ontlgTgKAZCi4MBkbARQrmPzs0l2Puno7TYBHU6BwHwE/CM63w80V0QApKwIJlxtjQDKdWuEB/Tvk47ebkDKkNK9EPCP6L2wGGa3IGUYKpDINAIo12mMLqfhk47e7nKEY0NnQ8A/omfbzUXyBSkXIfIe20C53oNntUuf9Lm93d/r8e/f8608t9aUAiZAAAhMI2COaOtctdamHa+vQXk8Xn/Gc0mvjIxKmr6f9N9EGRdk9e/fP70cdPVK2+cmqxOkdIDYJBU4BQJTCLTKtfUfspln+JRbyEdGwJBuUkVvZwDBFAjsjYA5oq32qLW2d5oUr9nTiOzEsJVfaNeez6pnC1aPx+Offv84cG/XhKG1YawBgT0QONMdsgcet4hhSDd7Xru3ez8777S7ApNQmS63KLbeaI7fv9ez+mwi+Jxj68WuZOs5XM9TlSQWtkXAHNFWe1SvUTvULNK5yfoV837az+mj30ZXI5OT4zoRau3e4RjpayJavcI3B8QHdZVa7XC7FZeU5i7Dosh+u9Q6nkP8+R/LfMd+JzSWj0bALdeYXF20v1Tsbo/Io5EdOL4h3WS6Vm9HdSM/A86XnJUkQbi31VfXQN6X9rbX5WqkMbK47UzMHFFgYrPN1l1bLSD9tCT910vajjcZVqVd2aDNLIAXNKt1aS52huGwCJgjWjgvGcs1Uzn1Z13mm5tzay++d4kfq5WjmU8AJ0OpyCKTucVyrGyibVHslTmlmq2tFmewy6tHik6T3vIVwMIobyFhOsEI+dMe2EUPA7Vu7R+vP8LauEykGe1CZRDQh6rFjjeiwhX8C6NlDaMjEPDKNeUjyTI1oCs26FsFLoRP9cDJEmMS66pdhy/zmDsCsQvENKSbHS3q7cqRL6PMrHTcuQlixUTOtYqe9V1ZPVmu0vunlGBO0NiaKcUkd+Wu+/y9XvFHDI2ynMpxTDx6ecg38aQUvufE2RirPM2DhIHeYFgMKyLFpMcv1p7X8TowAuaIEuflhJURFU9gOJcRX8JcVvHiDd/dLCVCJTGn9thZsY2ZZOcJQlot/mmadfRMgS5Fpk6LSG7PKClnm08mSMkbTo/B7py2toyRgoa508SmBTYSMr74Mj3BV54Ee2Fop+SoaFMaqdSMFSciM+U1vB6BQKtcRU2GlApZpmJiI6e0i660YyeioOY8Ijl4MeuU0xHAnTmmId1sZZveTlaGDCjWFbtiXaqHsRYpK08aFcPbAy7ZsMJjClItVPdezqVSFQthWIqWU3683uJSjerGqJmM9aa3X7zbH2bnVGt9luB1WATMESUOS0dXRqFibIHElVzZwfbb2qsf/K1wAUWZhKk4MxWYa4l0oU45qcUDpXWEqz2GPinixNdZhpUljCg8za1We4+bL+tllGARCEZkRbIUqnnzGFrJV3FdRgp7zakSYbIrAq1yVTyLQ1aTGVZyxYa8pYoiWQrkBsO6imcWgpNShz0v0iPGkwgY0o3+ot5OcSdqJfkMhImvok3FQRLNblEu69FXz5VZjw5yoFwxPAivSVpyKFFbTRnrS5xcW45VDFJUsqLoaaFo9h0GneorbzDECLZz4So5YTQwAuaIlsIpOfMavxaJfvfzS+2ZK51CNOKFdVPKokA7Bp3bgg2VFZ2BIClRxHb3GjqkULZ8UajUY3JqaZqRaqPSnsCQN0I6+3qdcYzxJW7Bl7guyLV0R2PhU+hKznS43AjITPciBnFaCDjlyupMFr/yunk3EZaVipzIsbCPBr26Yo+ltqpyKiLpFWMfAUO6UV6rtyPO+brTpVEiRqVIo7x/UmWkC8pzpaxsDfKzoCiFkfSqr8CSWBq5hduzLdGsl+AubJZ/arm4LyObg/VWa7JXtiQN3mUPeVbG64gImCNac14u24ZMLuVxGCytPdWzJZxCPebiEthxnXKcLMoZ5JU4oPXq8mfXxipF5SDG1T5TlxTKN15kJvWQnFzK4zBoMzLZ28VA2TNNMzY5QIEly1IuxV6lVgzSSNrRUliIFGlRXm8Er7xiYQ8E3HKNCTBZ/CrSskuB4PzAk0I5FvZ+XQXFYFjqUJcTOS1C6RdjDwFDulFdqbczlJupiJlJzYMoLFNjq6dFLZrVUnp8cFkGdTmeqh/rnhPvrQd5JQs5xUBx9Mq/OlzSqYx6kfQGg1ZxTzZGwUzZLV5HRsAc0RaHea2qHJJwYYfJ17XXKOYctoIv5iF/8CCqdCxay8FFOp5WTHP6T1F4Z1UCWy9MkFKS/50Re4dINIz3PM0DMs63XEBFmtvrwoZSKBafcVk40qIsyAPlB5P9EZgo15BQJkuTyZJy0rJi3IaaVrZpq711RiI4KRGMtpmyDV4nEDCkG+01ezumjmqBb+3P+8ndVXp2xHtI0xlm8ppvu6obKVV28ZZjP2GjwW2OTjHYcZDmHwMtmCid4DxZq3VtG0TSqwyakGBxmKZxz6H1pjcYI2cnPGWn8fSKLZeNYTQwAuaI1pyLezkVOVd1rDCe/VZ7fD5zPRvnGkGqYPP7n/yYyPmwCSk7q/WWO+7Z4favU6SULcVUeXcGtCBMoihRh1XcBnxJGAyDfRYJ32KdVrMOZZNnVW8X66fI5TVIpjmcCGYu3hKQRrzz7TlBhC4CU+WqyioSzbwpoiff4Kn6CqbJjVoPaerHa9AsVReU88zG7+4RAoOAId1KzTxPjRnhz8WQlNRaJCh+0+XxEr/EIAXiURDLq3yTJjOdnmNJolyZK0aVa8hJVQwvyKRtUCmTm+K0RFLpmcqSfGFXQWtUshclaju0W9AmIcewkj3yAqdl4Ep7wsvYCCw9a7qMRRGraqFJrhQlatdePkHh9KavbF8jGLOwChSHren1Gf8/O34GSEfkIuSvs4sqbf/SfNPxJCk5+dITp30vZiS4EkBKNCIKBVD2rU2UlvDUuC6qbO1V1mRfBSjJykw3ZQPOJxCYLFdzyDShXFX86UCpNzlKhaWOuCw27bPUVUg9GBVdT3NioxAXBAzpRUCjuZ/bGTNMgQAQWAsB/4iuFWWOn3Dnlht4jsVldcYhZTeIwf5uUK8eaKVy1S2YyLIrEDoY7oyATzp6u53pQDggYBHwj6jV3nKOp3tGdxxSckpbD8D+1ghv53+lcu22cF3BdluC5ykEfNLR203hBzkQ2BgB/4huHFy5x9M9wzEOKTmlrQdgf2uEt/O/Url2W7iuYLstwfMUAj7p6O2m8IMcCGyMgH9ENw4O920EQEobF6wOiQDKdUhatk3KJ93r7eSPUWIMBIAAEAACQAAIAAEgMAgCTvPo9XaOGURAAAishYD/9mutKPCzCAGQsgguKB+LAMr1WPwPie6Tjt7uEFIQFAgUBPwjWvQw2hEBkLIj2Aj1KwIo118RPKG9Tzp6uxNSipSvhYB/RK+119PsBqSchiok+vmgXG9YBT7p6O1uWBLY8lgI+Ed0rFxvkw1IuQ3VV9goyvUKLC7cg086eruFcEIdCKyNgH9E144Gf7MQACmzYILSGAigXMfgYdcsfNLR2+1KBoIBgRoB/4jW+ljZAQGQsgPICLEWAncoV/z/i6ZafNLR2xm45k/l/+YYxq0/mDnfGzTvi4B/RO+Ly6E7Bylz4P97PfLfIp2jT3/J2LEIj29HPCvELZUWlusqOK/iRLLlOwxS9QcRfXXp+KJjn/S5vV2reaG1G5/EuP/8/9zgSrroCdp8W/4R3Tz8egHCZRu+rnAULkPKd/Say+2feaxOiKmF05XAtRErpCoSI1bPcGcHbDZX33F1blGrXJvg8CLz4J5VVrbw8vosJwFYNuhFY7njMKgkc6vN65JC1ulFlLpnHbdIL3v5vrfj031l7ApO/ZEoub4SJECgj4B/RPt2g0nCjfB4Pi/yCfZFSPm2Ruh6L3c7PSn5CR+vfp5RBP35XasS3q/XX05Guft8yKHylzWdQXx6P9/hdbGx4/eUIluuHXBoOdMaicxTvfGOB27UspXrJLps1YMMNieroMMx308epdqp+J+KKKOfd2xJ1zv5trcjQh+PLe7x97NiSufcm/mG72cujZ4DrAOBIxDwj+gRGX0Rk27T1x9dDOXm/cLRICaXIOV7LC2P8cKn9oyexE4zNaMShLfUKzj+ept4v98kCvl8Yd5ze851W65tcCqoiMv2cW17aNHlOAlgTtbDjKyoYNp5kkg/2ycjnpPjKmtLulb4rrcjOB+vt/4pM0tR4UORX5YT75kXUuNPZeV57XuOu3ENn8/0naLomQrEd2ilCTKVuNEhWd6IxhgzIOAi4B9R13QUYT4beTBKZt/mcQFSvt16sLM80pw6KLps249ZZWg9yGyUD09RGvXG5iruqV17vVeuCpwa6Xqlgkl5aFRGXSvKRY6QB0o8z2HXls1lb5+V88BGvMq8R3rc3ze9HUEWwDTYOUUgNeVYmsixeXdgRCawkcppGIsmkUKHDkzqBCBkTvGHA2SxpFJQSspD9Fs+M75K7WAfuyDgH9FdUvgxSDgN8XGvDsmPXg81Pz8pP8FneKQp3Yll1PQ/WQlkL+5kvm5f4h144/JtBouL6ip29C4t6pWrAkdN5oJnjezcPKsNykF74maYdmiKUYWo6nFGROXgxJMe6XFLy3s7gaWB3HKkxEVYlsso1Yd6N1g48lsxoRf3JBZK1MRgWrDrKpMqXLJVSsJDHIa7SeWfrPACBCYQ8I/ohPEAYnEWzLukAZL7NoWzk/LtvpMdXXbleyjlHTIJes2XWwnaZXERjMTvVsTpgqtUBv1x1+c175WrAkdN4l4bSwYEq2HnXm8nddXjU8aQSmldL3Ut04cy8rkrLR07Gf+84x7pcUdLezuCi4+lwS7AWn2JM9qQFyn5qqxTpIZlbqQmDTlb2nBK2XNYfqknpxPTVNsNHsgzD8Jr2c556wWZ746Af0R3T2dhwHAsyhlTh2Shp6HUz03Kz1ASj3wBFnrT01QulFDzKyF6T9cl36DZ0cIaquyzoxsNeuWqwFGTCE5jyaBmNey839vNrIcph9qNzC5YirsnFmepzYV1JD2fY9wjPWa/rLd7hR+w62JnOVLQ0oRM8zINuB/Kqy1UPc+LDOPvYte/WqWd6HBUQOEaUkpJp6iGEXq7FntYm0DAP6ITxkeL6VRwEyBfT34YTk3K70WhLjvljiTlIVBkiyoh36r8PdnyS7T6oi3+e6NyB/c0brDeK1cFTk1qvVJhpTxUP78U1DtO5tZDba5WbHxOMLpXt8zciOzi7K890uO+FvV24eaWh1pRUJ9RIRZDVQmCNzGsILcy6a73HVRy0jPsrcfIWpqD5UHQCjr0xcUVFnhcbQALQKCPgH9E+3YjStQhGTHBuTldiZS5exZ6Do8kmr7rHA98f8b7khTlc4Xu1vl3qb6uxR7uNOyVqwZHz9wPYTN41qZ64Fb8ZVM16NeDjaAcWmH0SSpTNdiPqBI776RHetzRwt5OnsCqX7csFGiDJBNRlvURJyUZ4O/1ir/k3q6mfPgnDEtDWgqin2qARUnJiNKqEy+bikY5pfOWCzLfHwH/iO6fzy8R1SH5xdHRtlci5QssXR7pxhXv88sdKSIpD2FS7nYSlXmc8uVZXefCZ3Ooruumxg0We+VqwFHgzsPdeOCHNrM5z4n5dE+lkT4o6TtkSaaRzLle8mo1oNSm1Sq70yz0SI8bWNTbWYwNdrYIslgL8jJlQDN2TJylz8PCC/OiHVRNpfgULRlrQ/ErWCmS79CkwdmpxK0Hagg57GmKA4mOgIB/REfIcH4O6pDMNxtP80qkfIHuFI8kb1zVJZTxYC7VfLdHAyXlC7f4ao1sBiGZeZYtb2dfM+XaB0dLxBOLKCgAar3IdJZqYd+JRJVskqqJlZ7ouZyKw6CYo7I3VSxsVGk12gR2cJVXQ7rZ1tzezpidZdosjbMkjzxvgoB/RG8CwmjbBCmjMYJ8HASuWa7h+V0aPWf79xT5pKO3u2dVYNcDIeAf0YESvVMqIOVObJ9+r1csV/lJ3+kJ2mIDPuno7bbAHD6BwAIE/CO6wBFU10MApKyH5Xeemt96i9+Cw2c5FlKUq0XkBnOf9Iv3djfgF1s8PQL+ET399s65AZByTt5umjXK9YbE+6Sjt7thSWDLYyHgH9Gxcr1NNiDlNlRfYaMo1yuwuHAPPuleb8e/gYJXIAAEgAAQAAJAAAgAgYEQcLpBr7dzzCACAkBgLQT8t19rRYGfRQiAlEVwQflYBFCux+J/SHSfdPR2h5CCoECgIOAf0aKH0Y4IgJQdwUaoXxFAuf6K4AntfdLR252QUqR8LQT8I3qtvZ5mNyDlNFQh0c8H5XrDKvBJR293w5LAlsdCwD+iY+V6m2xAym2ovsJGUa5XYHHhHnzS0dsthBPqQGBtBPwjunY0+JuFAEiZBROUxkAA5ToGD7tm4ZOO3m5XMhAMCNQI+Ee01sfKDgiAlB1ARoi1ELh5ud7zj4v6pKO3W+twTfoJf0GF/6Ax/prKJFw3UvCP6I2AGGmrIGUOG3+vx7K/ETHxF0InxI2Ulls0nJx/aWG5roLaKk5mQu/HClJ+tpJDX31mzOHVfNLn9nbUjIT/1qV1klmo0B0emN0TZJjS/47TQnL3nBBwAAT8IzpAglUKppT5/3sSJR0u1/B12jvhfKRULP2yUDOsmJwQf5j+UhG8wrViniRGrIK192Es2o+mtukFV1vlyggpMHmReSgMNVBhZeXh88n0+k7qIiF9jthzbvJgNSdWUElerTavS6esw4lI2anGLdLLBhb1do/HI2NYXBDRJLIVIHQwZAREHfISXu+NgH9ET4ENXZd8V8a78/kOr6e9Ey5Ayi+VQ89lJjQ9zJnL+MzmGUXRn98FhcfzqZ4W79frLydEFVIckMMyzWru4P0s6TUycm2vJ7Tl2jmDtJxxi7DlqUal44E7u2zlOmm4JMO+c20Ru8iJWMEZq0xXRcjXFqcJepapJV3nvai3a9/WEdnwrz2d72e1pKM3Z99ZNV3Vi47z9zMXiLL7ez3FraREmACBFRDwj+gKATZ3oU//+/2miHp18yTWDXB+Un7Cg57Y/MD8fD40jxd8oNW72Onh+fqzHmQ6wlvqFeyzQ2rPGJPD9v09w/oCKrZc22ewOpHEpaBZINH20KLLcSL8xTcIieeuc2WgTKKkjuXUWaMqwtLDL06TwsBTS7pOdWFvFz+jk60OI6urhhjgD1HzRaB10n0hCqttxQkbaT7ItM5eOB0yUhNjzjUWWv5n+v5RTJhdxeusbIIDBkf5JhLB1XraHNtURUqpFSnvEa93RMA/ouMjQsWcj0TJ15yIIjjD6Oyk/IixujtVbyeuvFaMbJgHDS3lw1Ns2DaXyEejBJvKV1zslas6gzXS9UoFjvLAlZAfkkF9hhPWshRZ5yZ67blaqRaEC5LJkFk5D4T2+YY90uNOlvZ25jNSopXAkyTJsezzzbqpCSM1U6WsmZEzOZYe5NimJFo1Mo8tFw1FXfy9XvWnEdKtHMds5Y8n+tLzlRUyXg8B/4iuF2cjT6G0m29TVM1vFHwztycn5Vdc5EWqHsz2XjSBAufxwW88sB4tiyuX3/a+xBtsce2ymf86kZRvfAlpr1zVGVSTuO3GksHDati5fJwaUzkNZvUt0XBmjUwxGItOlZGTqiqCrVucMvYJxj3SY+qLezvVY4mP8QTkBcEEDy8IHZIoXlgpQ2oWpLEyVLVVJGWUFNRbDXYuvVLkvJAHOaE0KAIVQmCRhuG2ykGLVUtqY2B+JwT8Izo6EqKyTap9iVEccXpuUn5GlO428U2L3I2RwDxvczTJuL4duT/MLouLYCSe+3GaL87suz+IuS6x6Ps6q6RXrpIR+YjifSo5L6pXq2Hn6vmrLOWkYRXEnWW2bIj1UlVkbFl940zHcuyKh+FHPdJj4st7O9ncCZzLMJ60fIbTIBzloFN9pSPZt4qJKjLUJMobvsth7zsvaSci2TW/pmXxIiOVEKJ02Gd4zQq8mKtZSYV7DG+HgH9Ex4aDzkl5Tqtkc82r1ZNMzkzKChCrK1Py6xAeREWVFPP9p1OK3pOwKhPPUvsJs2AuwtYKt1jplasCV00iLI0lg5fVsPPpDi31WaU0SoSGsyIUz9SyqCx0xRWlRlVo1WUlJh2PNO6RHnP8oreLzZ39ecQCeR+2ohODS005bsEXbPNFYZVpTqWTJTRgi7xaebYpxZvi+ZYdrDHKJipErsMsJlc55bTckZoQmN4KAf+IDg1FqGc+ZVWipdgr0fgLJyZlDXD7VyZJWs/peB9Wb97b9SEKpyqTfuxqZzFmvmUr+W0WeuWqwK2BrVcqxJQH/vhVIT7pRJBt3FvnRlx7Vis9a1LS11JcmlmcJothpz3SY8Lf9HapjdG/4y5gFkONihXM4olcKE37w5tSKMcinBjOTWmWiVQKY/riug8LPI49YxDzipLqpDC7FwL+ER0ZC6p5rugq0SBtNQGV4ogL5yVlFTTlRWockijfY0ZYpo4H/rQtVg4pyjrxq8pEmE6kGFx41CtXfQb1zPk8TSBlbehRJumq+BPGNHT4rJwbWytXsaww2pLKVFWQUvfiMkkMO+2RHhP+rrfjTkUwLHEOY3Wpp99DkDohvAa4Z9X4zFcZkh3T1JP0nNN6TpasuSyUSZCkGGE9b5yUoiC54kxiB5xnvnTY6kFiOyDgH9EdEvgyBB2XfBRqJ+qk1OKxV85KykqoqovU+kyXWaa+WQjKQ5hk9Xjxlzlp8vUany1F18bOc0oi3695+aaDXrmaM0igMbjzcDceuC+f7YSisLZlZ8K5+d5qnXDllzY4XRXkaVrNpjvYvEd6TPPL3q4+gIYkgjh9jpU/rTI6prfjojFWkU+xKIeP1592qjmjGdPvpCR+R4u1AzwqdBb0Aur1tJtcPr50sJpBOrsi4B/RXVNZEowOVC7wYqmOTTqt+fQUtcFHJyVlLVT1RVp7tSTXdWA8ULWIu1sbKOmsYlEW7HeWZb2ZC6yYcrX0BIAiOFoiWCBAC4BaLwKcpVrYd8LPdKFBWGt75dykYZ7C+R1A/hkozd3cqqAEbFba1QlmhnST8dzezpjtOA0s5JqScbsCqTQ1DrXQ9D5lCDkQWAsB/4iuFQV+FiEAUhbBBeVjEbhduYYn9+mbsx9rxicdvR16ux8LDOa/IuAf0V+9w/4rBEDKV7DB6BgEblau1/jc7ddS8UlHb4fe7tcKg/2PCPhH9EfnMP8OAZDyHW7rWTW/vxa/f3f3D2xqkFGuNSaXX/FJH7+3uzxB2ODdEfCP6N3ROWj/IOUg4BH2GwRQrt+gdnIbn3Svt4tvkfAvEAACQAAIAAEgAASAwFAION2p19s5ZhABASCwFgL+26+1osDPIgRAyiK4oHwsAijXY/E/JLpPOnq7Q0hBUCBQEPCPaNHDaEcEQMqOYCPUrwigXH9F8IT2Puno7U5IKVK+FgL+Eb3WXk+zG5ByGqqQ6OeDcr1hFfiko7e7YUlgy2Mh4B/RsXK9TTYg5TZUX2GjKNcrsLhwDz7p6O0Wwgl1ILA2Av4RXTsa/M1CAKTMgglKYyCAch2Dh12z8ElHb7crGQgGBGoE/CNa62NlBwRAyg4gI8RaCKBce0he+E9P+aSjt+uVxLrr8g+k4f/UXhfb03vzj+jQ26NavuQf7TsxKTtWzN/rsez/EZ74U1ET4sbOlls0nJx/aWG5roLabCeb3xJOJkGkLqie7uZJrl9kPulzezvauPqPXRRe66d9NY8GwGUX4tXAwH4UAv4RVarjTExBmwuU8gy3aPg6ZbGfkpT1yqOiVz8gJ8SfmnpeyQ8RXRVGPOPpYixOWmZrMdYqV0ZIgcmLzIOmwaTDysrD55PpnXRS1YnxxAHcLHI4Y1wn0lZIzjkWJ53vpakkDSjjTFukl+wW9XaFAIKpBrL4xaiJQMCtoNhUweLtEPCP6JBw0HUoLgC6EHRlB5XH8/k4acWfkJQ1K4UILoSqCz8+CwX7n4/+/K5F/fv1+ssJKndk3XpvkNWbA89h0+DSi7ZcCeF/z3d4FUzRcqY1EpmnGqCOB26ospXjhETd6JH3qSuin0YoOrU5nT/NgjVn+n7yKFVcBMZ60RA1fI6zZEnXmX3Z282BVQcyswCoIN1InenXho7Pnuj9/CbH76x6OWD9+gj4R3TI/dOFWK7KeB+IOS08Xn9Wb8jNNJM6ISnNfXy5aImjebyx6eHnXN5BdYJ64S31Co6/OTvQDudYXEzHluv7/aYdBrIKtnpWtWkKk7aHFl3dbohYEbeCnofZRJ2EaM2NhEyrzaj0w0THU2ISUdtnlexcmY01saTr7H7t7SogyoKCvtBPo/yxqP6OTSUrVVl/Dpz7cd6Rtc5FFQTCE6X47/mOrzKVrGZcCWOumGJWhF2rTgKcOF7vjYB/RMfEhmo9l74p8HKplutgzG30szojKf3dLJZY4mhOfBPz+W6tHGfDPKhU0l3OPjzFhm1zaSKpps2lFnvlqk5mjXS9UqGiPPDjj7kj7b4ToqV9S2SjPKgiqwWbRrljlJqceJ5JFjNzkpTeBhz3SI+pftnbFWTKiBwKOCUZeUw4isLQ86xGvtRMK5rbwYY2vCtHlKFqKcNKrr/gSulXUymWmnJsnChRnQClj39ui4B/REeFhes4vssRZzqemLhASko26nZsXuckxe7i67khjqZ0SZZR03e46lzqyT6/iQghN7cAABJtSURBVA4+4u34Sj+cGcpJ3cbNMGKxdiiEtxn2ylU9etQkQtNYMphZDTvPDJZvuQsPiZ30UUi5CYIXt06EDxpWYeOCUzYUukRUDkmWy6yXpDIZcNIjPaa6qLcrn1WJ86dQknAWMspqWWOkwkr+BE6Ji1WzepRh8CaNla2URKVQEIX0oJxpTo6KtF4IPpJcxBSrcW9iwag9XjoBxgKv90TAP6LjYhLKmr/EgRHVbt5kjbuVOrOzklLv5KsVukGZXHpNVyQJ5HUp3bvUa5fFRSojrqA45Zn0bsc9h1bvDvNeuUpG5IOQMVFyXlSvVsPOzaNX2YZJ0OcvZlX6IBZZUFnnBWlCi8kvW8Ypz5qfL2ZfsXCEbjPJrD7soEd6TPir3q4cS3JSUA+YZWHCnmhNMDZoVEvSRL17U1oxc7uk5mpSSpozDa+F2aCcs+Yfs+Rq5NeiINXZ4YRVVuOBTmDY2kFiuyDgH9FdUlgchE4YHwqapDMkj4f7Ey+LQ+5rcEZSVkQoUppuP+Y5+FfE64DzqY/e0xXMl2J2RtJyP+d1Z6AcOnqXFfXKVYGrJhGKxpLByGrYudfbES1cPZGj9BN2vDj7iqjCVgu6bMKsBJF7CoZS1E5SWow67pEe813U2/WOG6Os4eTVeBtQL6XRpwzUUjYJIpKkFkxpxcztUrDNCWphclu8K10KJKpA28Zg4l8lLi7VslCn4UQCVh3zeyHgH9ERsairPZR4OH8k4TdE8jWfzRH308jpfKQ0NvH9Us0w+yKJuC95fRn1XC+tzqAfO8eqB8JhLbz+Sq9c06MnAlADW69UUCkP/FxWp7nnpF4nkh6Ph7wYylg5tXnYNMonNqypwlXqSYuUSqPQai0pSTcXjnj0a4/0mNcqvV2C+a07ZYkuj/k1g0JQ54vCiMVUDKOtNoz3SuFD0Vw+cGWF4I3Hkd2cQuuuydlWlS3SEkOpT+Mgoy8OqhOo9LFwKwT8IzoiFFTQXMyUoD5xOefOcpaPOzgfKati6RBHInF/duI6Hvg7dbGCSNFewNP+Tdi6JI3Ctae9cg2wFGz1LDU2RdyEyNpUTVXFH7upKWnVRGuNPYjXKo0qrAxXaZMnMjGVJa1iuJkJidyOGvZIj/ms09vl7kmWiYKXEaTXjK7FWplEp/wAWWJom/Fom6PKn/UOKIQsZOIxsFz5e73ib5TrnPTP+FEUx0q2k0GXd3ZUYSDuKAj4R3SULFUetthp3qjo89yTanufz+eEpNgt/DJ3iSO2Rc9AyvLqC5GVhzApCiQq8zjl6rGl1d6F67BtcunVXrkGNAvw+tE2D3fjgftyduo5sVTSnHlmOshBWbQ2rFan4USulTntEkg6riCq1Vh9pNce6THHlXq79Hk8802+Nb6FQSIvfxCrQNQiVZTMTW0YKc7rekAZ6UySpxI4OFCZV7FiIxYDKU3j2ebPMYyabS5HKhfksj8C/hHdP59ZEe2xU+cieyAtPgZ59QyDU5KyHrBTxFn6a46Nh97dGFNW0nYp2b0pE/ELeVbvHnNTrpae8FSMsGqJoI3wLNBrvfhUzVIt7DtJfUF5JmcPhRXyVVwsSSO2quy9+A4+yiyFsvVCZqSld9MwLcmONTKkm+Tm9nbGrJoSPBWcldoWCyF0M3JXsEUW8AkEvkXAP6LfeoXdTwiAlJ/gg/G+CKBcC96hiyvNYlm/3MgnfaXejlq7g+DstnBdweU4xoZOjYB/RE+9tfMmD1LOy90NM0e5MulH9iKcw06vPunr9HaHwtlt4bqCnZBHGCAwCwH/iM5yAaW1EQApayO61F/zm2jxG3AHfYywdAc76qNcdwR7lFA+6ev0dqPsFXkAgRMi4B/RE27oCimDlCuweJs9oFxvQ3XZqE+619vxzyjiFQgAASAABIAAEAACQGAgBEqjV4283q5SxgIQAALrI+C//Vo/HjzOQACkzAAJKqMggHIdhYkd8/BJR2+3IxUIBQRaCPhHtGWBtc0RACmbQ4wA6yGAcl0Py9N48klHb3caIpHoVRHwj+hVdz34vkDK4AQhPYkAylWicZOxTzp6u5uUAbY5LgL+ER0370tnBlIuTe/VNodyvRqjM/bjk47ebgaEUAECWyLgH9EtI8N3FwGQ0oUGgvEQQLmOx8nmGfmko7fbnAAEAAI+Av4R9W0h3QgBkLIRsHC7BQI3L9fmXxnbAuehfPqkf9Pb/b0ee/zfkX+v15uQ/Hs9X39DYYpkgMCKCPhHdMVA67ui/7W8+Rf/KNaJ//rPeUn55n6eIGpCvH5dVR7X3tTxO6q2+NPCwnJdZfuznXi3xEwnvlqQqlvIV/8J6YGMfdKX9HbEkPqvXRSc6+65lEOg6R5/Hm5dBOHtLAj4R3TQXVS3gboM6NCWu0LJBt2QSWtMUirUxSPNk6XNMS3lvTmvZK6KKNgY8Wwe2U57MxDTdCLrCbHMscTi6K1NGdmMHdUplEitHR2y1ipX3qraIy8yNu5eWFl5qMui/3iusCue2HdKpAgMfkavFSuopH1YbV7/VJnEuO72TSbDTVuklyRn93YRGkXAN2+lSmSMgAAQIAT8IzokSHQdiNuArlS+J61wyB1MJTUmKQQt45xaL6Jhzv0cdB7P5yM/CMNT+iW+J0IsFla/5rEVqIc3BWnt6PNJz+OSUFwqysFnK1Z3U1/tiCIIlHo7OXTdlmvscZ7v8CoAVOc04avxzLvoeODOLlsRprmFyuZhYOEu0a1EmclJMckOq1hBh9N5P3nULB/hWnsWgvMMLek687m9HQEhakR78Wbvp6wtT7Mh843fz0ypsj3FYVQZY3JnBPwjOiQydDeXWzTe4mke7oqvroqhdjomKU3cH6+/GfdzuhWtBwk6yTJ13/I4I5AIavMROay+qe92lPYjch5waMv1/Y4/0KS3rGdVm6b21faQbHKRBBPiSVwG2U2T26BY5ZFNzKBSrGPZIMIDido9wvwUhL/RhpZ0nd/M3q5GNLuJ+PEnvPE1MF+tp3JQrhQvakJqxWuppSB4PsP3afNXKStjVdp5rsBs8+8Kz59MAgZnRsA/omPujE5aPpVhxhN1jMdMfk5WY5JiwaX54/Wa/LmVbJgHDRCIVL5NPcWGLS9lszxgSfvVqtGcakll0zTOtnnQUCtuPK2GIS8FMy5uXhvutVeu8mSqd2BxBzMgUR74wzguEvLSd0LYZ+yyp76BwbVWrFaqBeGCZDm8EFSfKErZecY90uMO5vV2fYwKDkGnCSOpZFrTJ6WpNiQxQsU21VZUHiSphYzugprs0vVcOlnwzqHsECMgsAkC/hHdJOQKTuns5vdK5bKP54y6jSTtXwsrpLGVizFJkRcmP2cfr/frIa7EFiKBlEiR8cDKiU1B1Xc8TgbigPxq8qEpZVFGrGpfJ2OZTX23I/spRal0m8+R8165xj2nX0VUk5htY8lsw2rYeeuTvOIiUZBugoRddDHjipiORf47lPQrKPiVnULJ91SjHulxE3v1doqCwlhZLqNUK4qvYKHqQvzebPaWB5mfsMJ2ul9U4bI+BkDgAAT8I3pAQjND0vHSt3b5fJzPb1Ti2UzPA6iNSQrdW7mhDoPQB9GqaMssfPJmrG4+7bJ4Sewyc7N4dAPZrOJch+cdlb5V3PTagRtLe02b+mZHOmZyW0DS4gNnvXKVKOlHYExWyZv5Ww0793u79B1bfUsEF+bJXJ7TMonJWEQIl6i05J+2a8oabrXtSWY90mP62/Z2icNEbO6yygOAJZJpZkXKwlgcUHW2mF5+FbyoJZ2MciFMMAQCeyPgH9G9s5kXj44WHyKaTB7QeY5H0RqTlIh0uhoZ/oneLthk1ajbfOLxxZuE1QOQYncsibX5gQTJ7R1N9nbzY8UAIe/lOxJ55iE9RzwYsuaeg165qj2rScyusWTSthp27vV2hD3XXiQizCoXJGpgWikaEoMdu9dpB8uOSCWlrU4265EetzGvt5u4PMiVhZkQzO0czZi8Am5eVtp5tQV1RTex+Hy3Li3lSBmqeK0wWAMCeyHgH9G9slgSRx0sMuRTaC7fIKuVl4Q6SndMUjpY0nL7IRfht2+Uw5yvY4lwoXH+A5jtKYm5gdjIqY7VN6WeACGBDpo5t+bgK6OmpzUXe+Wq9lynXq9USSkPTdB6Tur1VF7WZZeI2oNaqfyk5EmpWd/8sVKr9qudD7/QIz0mPrO3SxeEh0jAU9wuigN1iqREjgVRYljha2XFhZXEpHNORmymVRwsAIGdEPCP6E5JLAoTDo++O8sxpFE+dae9TMckpcCs+aJ1zYhWyLOeh6ggiP2VRz/QnHzW3tSvO6ogyps4ftArV/2Y07P0WJZntbERa1M1/RWs7EQUU1pKNVFZ1JrJwAZXllYYbUilfxS6oTjrE732SI9bmNvb5W+b50JQKKd2PgtN1US4I94KWxJwxygkNBTePvmPVFBllY9bFZFklVlVouqDYxHsRGQi1Ssi4B/RIXdsD6g8TvrgWc0ht9NIakxS1IWpsiacxbehSFNeoUlbeQiTokOiMo9TdTsXXRW7OVGB+i2+VVO+Vt7UNzv6ez3ErqMHsaDSPXDSK9eAoEhXncZ5cBgPzCQ79ZyoaGwYCsoxMjZqWptxFhl50ueazat5QB4qoyw+2aBHetzG/N6OP40VH7orCANqCrRIRFSPv6Uf9AP2RY10shsFPJHUCBYdiN+xKd64erJV9hw2ax0qu5ORinSvhIB/RAfdqTze4cCp46TOmpIMups6rTFJ0RemydpSoq4/1jUeFFP2w1h9Zy7k0QSiacOFUeM08yvJ841uPi1mLePE2ZQSNdJhj+VVWdhCL2oHj0y5WtTKCdUSUSK0z4KI1osEZKkW9p2kJq7Qlz10S8ukwX0guyixgmJxl+C3ZJFZ0SJxcXEwZz+HN6Qbf4t6O2N7zLRJ6TGpICoQWAMB/4iuEQE+FiMAUhZD5hqEe/s6T1V3q0cIb1euqKfPxycdvd0RBxExgYBAwD+iQhHD/RAAKWtiHT7oQWe3JqLG183KlT44vH1B+aSjtzNnBFMgsDcC/hHdOxvEIwRASqcQ6Pta/C0y/dp92P69ngP/QdZvdtQB57BllOth0B8X2Cf9fL3dcUgiMhDYBAH/iG4SEk6nEAApUwhBPhACKNeByNgrFZ909HZ78YA4QKCDgH9EO0ZY3hYBkLItvvC+KgIo11XhPIczn3Svt9Oft2MGBIAAEAACQAAIAAEgMAQCThPa7e3+++8/xwwiIAAE1kIAZ20tJFf0A1JWBBOutkYA5bo1wgP690lHbzcgZUjpXgj4R/ReWAyzW5AyDBVIZBoBlOs0RpfT8ElHb3c5wrGhsyHgH9Gz7eYi+YKUixB5j22gXO/Bs9qlTzp6OwUWJkBgfwT8I7p/Poj4+XxACsrgRAigXE9E1lqp+qSjt1sLZ/gBAl8i4B/RL53C7DcEQMpv+MF6VwRQrrvCPUYwn3T0dmOwhCxujIB/RG8MzJFbBylHoo/YCxFAuS4E7ArqPuno7a7AMfZwagT8I3rqrZ03eZByXu5umDnKFaQbBNDbGUAwBQJ7I4B7eW/EZ8QDKTNAgsooCKBcR2Fixzx80tHb7UgFQgGBFgL+EW1ZYG1zBEDK5hAjwHoIoFzXw/I0nnzS0dudhkgkelUE/CN61V0Pvi+QMjhBSE8igHKVaNxk7JOO3u4mZYBtjouAf0THzfvSmYGUS9N7tc2hXK/G6Iz9+KSjt5sBIVSAwJYI+Ed0y8jw3UUApHShgWA8BFCu43GyeUY+6ejtNicAAYCAj4B/RH1bSDdCAKRsBCzcboEAynULVAf36ZOO3m5w+pDe9RHwj+j19z/kDkHKkLQgqTYCKNc2Lpde9UlHb3dp8rG5MyDgH9Ez7OCCOYKUC5J63S2hXK/LbXdnPuno7brAQQAE9kHAP6L75IAoBgGQYgDBdGQEUK4js7NRbj7p6O02gh1ugcBcBPwjOtcL9FZFAKSsCiecbYsAynVbfIf07pOO3m5I0pDUnRDwj+idkBhoryBlIDKQyhQCKNcphC4o90lHb3dByrGlcyHgH9Fz7eUy2YKUy1B5h42gXO/AstmjTzp6OwMXpkBgbwT8I7p3NohHCIAUFMKJEEC5noistVL1SUdvtxbO8AMEvkTAP6JfOoXZbwiAlN/wg/WuCKBcd4V7jGA+6ejtxmAJWdwYAf+I3hiYI7cOUo5EH7EXIoByXQjYFdR90r3e7j98AQEgAASAABAAAkAACIyHgNOidns7xwYiIAAEgAAQAAJAAAgAgTERQG83Ji/ICggAASAABIAAEAAC3yDwP7bIfx3betf9AAAAAElFTkSuQmCC;" vertex="1" parent="1">
          <mxGeometry x="72.49" y="540" width="841" height="144" as="geometry" />
        </mxCell>
      </root>
    </mxGraphModel>
  </diagram>
</mxfile>
